ISO-10303-21;
HEADER;
FILE_DESCRIPTION(('FreeCAD Model'),'2;1');
FILE_NAME('Open CASCADE Shape Model','2026-09-26T21:02:45',('Author'),(
    ''),'Open CASCADE STEP processor 7.8','FreeCAD','Unknown');
FILE_SCHEMA(('AUTOMOTIVE_DESIGN { 1 0 10303 214 1 1 1 1 }'));
ENDSEC;
DATA;
#1 = APPLICATION_PROTOCOL_DEFINITION('international standard',
  'automotive_design',2000,#2);
#2 = APPLICATION_CONTEXT(
  'core data for automotive mechanical design processes');
#3 = SHAPE_DEFINITION_REPRESENTATION(#4,#10);
#4 = PRODUCT_DEFINITION_SHAPE('','',#5);
#5 = PRODUCT_DEFINITION('design','',#6,#9);
#6 = PRODUCT_DEFINITION_FORMATION('','',#7);
#7 = PRODUCT('_3D_Model___Ventilation_pending',
  '_3D_Model___Ventilation_pending','',(#8));
#8 = PRODUCT_CONTEXT('',#2,'mechanical');
#9 = PRODUCT_DEFINITION_CONTEXT('part definition',#2,'design');
#10 = SHAPE_REPRESENTATION('',(#11,#15,#19),#23);
#11 = AXIS2_PLACEMENT_3D('',#12,#13,#14);
#12 = CARTESIAN_POINT('',(0.,0.,0.));
#13 = DIRECTION('',(0.,0.,1.));
#14 = DIRECTION('',(1.,0.,-0.));
#15 = AXIS2_PLACEMENT_3D('',#16,#17,#18);
#16 = CARTESIAN_POINT('',(0.,-27.5,0.));
#17 = DIRECTION('',(0.,0.,1.));
#18 = DIRECTION('',(1.,0.,0.));
#19 = AXIS2_PLACEMENT_3D('',#20,#21,#22);
#20 = CARTESIAN_POINT('',(0.,0.,0.));
#21 = DIRECTION('',(0.,0.,1.));
#22 = DIRECTION('',(1.,0.,0.));
#23 = ( GEOMETRIC_REPRESENTATION_CONTEXT(3) 
GLOBAL_UNCERTAINTY_ASSIGNED_CONTEXT((#27)) GLOBAL_UNIT_ASSIGNED_CONTEXT(
(#24,#25,#26)) REPRESENTATION_CONTEXT('Context #1',
  '3D Context with UNIT and UNCERTAINTY') );
#24 = ( LENGTH_UNIT() NAMED_UNIT(*) SI_UNIT(.MILLI.,.METRE.) );
#25 = ( NAMED_UNIT(*) PLANE_ANGLE_UNIT() SI_UNIT($,.RADIAN.) );
#26 = ( NAMED_UNIT(*) SI_UNIT($,.STERADIAN.) SOLID_ANGLE_UNIT() );
#27 = UNCERTAINTY_MEASURE_WITH_UNIT(LENGTH_MEASURE(5.E-06),#24,
  'distance_accuracy_value','confusion accuracy');
#28 = PRODUCT_RELATED_PRODUCT_CATEGORY('part',$,(#7));
#29 = SHAPE_DEFINITION_REPRESENTATION(#30,#36);
#30 = PRODUCT_DEFINITION_SHAPE('','',#31);
#31 = PRODUCT_DEFINITION('design','',#32,#35);
#32 = PRODUCT_DEFINITION_FORMATION('','',#33);
#33 = PRODUCT('OpeningFace','OpeningFace','',(#34));
#34 = PRODUCT_CONTEXT('',#2,'mechanical');
#35 = PRODUCT_DEFINITION_CONTEXT('part definition',#2,'design');
#36 = ADVANCED_BREP_SHAPE_REPRESENTATION('',(#11,#37),#575);
#37 = MANIFOLD_SOLID_BREP('',#38);
#38 = CLOSED_SHELL('',(#39,#79,#110,#141,#263,#335,#347,#364,#381,#398,
    #429,#453,#477,#510,#527,#544,#561));
#39 = ADVANCED_FACE('',(#40),#74,.F.);
#40 = FACE_BOUND('',#41,.F.);
#41 = EDGE_LOOP('',(#42,#52,#60,#68));
#42 = ORIENTED_EDGE('',*,*,#43,.T.);
#43 = EDGE_CURVE('',#44,#46,#48,.T.);
#44 = VERTEX_POINT('',#45);
#45 = CARTESIAN_POINT('',(-41.9,0.,0.));
#46 = VERTEX_POINT('',#47);
#47 = CARTESIAN_POINT('',(-41.9,-2.4,1.E-15));
#48 = LINE('',#49,#50);
#49 = CARTESIAN_POINT('',(-41.9,0.,0.));
#50 = VECTOR('',#51,1.);
#51 = DIRECTION('',(0.,-1.,2.2E-16));
#52 = ORIENTED_EDGE('',*,*,#53,.T.);
#53 = EDGE_CURVE('',#46,#54,#56,.T.);
#54 = VERTEX_POINT('',#55);
#55 = CARTESIAN_POINT('',(41.9,-2.4,1.E-15));
#56 = LINE('',#57,#58);
#57 = CARTESIAN_POINT('',(-41.9,-2.4,1.E-15));
#58 = VECTOR('',#59,1.);
#59 = DIRECTION('',(1.,0.,0.));
#60 = ORIENTED_EDGE('',*,*,#61,.F.);
#61 = EDGE_CURVE('',#62,#54,#64,.T.);
#62 = VERTEX_POINT('',#63);
#63 = CARTESIAN_POINT('',(41.9,0.,0.));
#64 = LINE('',#65,#66);
#65 = CARTESIAN_POINT('',(41.9,0.,0.));
#66 = VECTOR('',#67,1.);
#67 = DIRECTION('',(0.,-1.,2.2E-16));
#68 = ORIENTED_EDGE('',*,*,#69,.F.);
#69 = EDGE_CURVE('',#44,#62,#70,.T.);
#70 = LINE('',#71,#72);
#71 = CARTESIAN_POINT('',(-41.9,0.,0.));
#72 = VECTOR('',#73,1.);
#73 = DIRECTION('',(1.,0.,0.));
#74 = PLANE('',#75);
#75 = AXIS2_PLACEMENT_3D('',#76,#77,#78);
#76 = CARTESIAN_POINT('',(-41.9,0.,0.));
#77 = DIRECTION('',(0.,2.2E-16,1.));
#78 = DIRECTION('',(1.,0.,0.));
#79 = ADVANCED_FACE('',(#80),#105,.F.);
#80 = FACE_BOUND('',#81,.F.);
#81 = EDGE_LOOP('',(#82,#92,#98,#99));
#82 = ORIENTED_EDGE('',*,*,#83,.T.);
#83 = EDGE_CURVE('',#84,#86,#88,.T.);
#84 = VERTEX_POINT('',#85);
#85 = CARTESIAN_POINT('',(-41.9,0.,98.4));
#86 = VERTEX_POINT('',#87);
#87 = CARTESIAN_POINT('',(-41.9,-2.4,98.4));
#88 = LINE('',#89,#90);
#89 = CARTESIAN_POINT('',(-41.9,2.185E-14,98.4));
#90 = VECTOR('',#91,1.);
#91 = DIRECTION('',(0.,-1.,2.2E-16));
#92 = ORIENTED_EDGE('',*,*,#93,.T.);
#93 = EDGE_CURVE('',#86,#46,#94,.T.);
#94 = LINE('',#95,#96);
#95 = CARTESIAN_POINT('',(-41.9,-2.4,98.4));
#96 = VECTOR('',#97,1.);
#97 = DIRECTION('',(0.,0.,-1.));
#98 = ORIENTED_EDGE('',*,*,#43,.F.);
#99 = ORIENTED_EDGE('',*,*,#100,.F.);
#100 = EDGE_CURVE('',#84,#44,#101,.T.);
#101 = LINE('',#102,#103);
#102 = CARTESIAN_POINT('',(-41.9,0.,98.4));
#103 = VECTOR('',#104,1.);
#104 = DIRECTION('',(0.,0.,-1.));
#105 = PLANE('',#106);
#106 = AXIS2_PLACEMENT_3D('',#107,#108,#109);
#107 = CARTESIAN_POINT('',(-41.9,2.185E-14,98.4));
#108 = DIRECTION('',(1.,0.,0.));
#109 = DIRECTION('',(0.,-2.2E-16,-1.));
#110 = ADVANCED_FACE('',(#111),#136,.F.);
#111 = FACE_BOUND('',#112,.F.);
#112 = EDGE_LOOP('',(#113,#114,#122,#130));
#113 = ORIENTED_EDGE('',*,*,#61,.T.);
#114 = ORIENTED_EDGE('',*,*,#115,.T.);
#115 = EDGE_CURVE('',#54,#116,#118,.T.);
#116 = VERTEX_POINT('',#117);
#117 = CARTESIAN_POINT('',(41.9,-2.4,98.4));
#118 = LINE('',#119,#120);
#119 = CARTESIAN_POINT('',(41.9,-2.4,1.E-15));
#120 = VECTOR('',#121,1.);
#121 = DIRECTION('',(0.,0.,1.));
#122 = ORIENTED_EDGE('',*,*,#123,.F.);
#123 = EDGE_CURVE('',#124,#116,#126,.T.);
#124 = VERTEX_POINT('',#125);
#125 = CARTESIAN_POINT('',(41.9,0.,98.4));
#126 = LINE('',#127,#128);
#127 = CARTESIAN_POINT('',(41.9,2.185E-14,98.4));
#128 = VECTOR('',#129,1.);
#129 = DIRECTION('',(0.,-1.,2.2E-16));
#130 = ORIENTED_EDGE('',*,*,#131,.F.);
#131 = EDGE_CURVE('',#62,#124,#132,.T.);
#132 = LINE('',#133,#134);
#133 = CARTESIAN_POINT('',(41.9,0.,0.));
#134 = VECTOR('',#135,1.);
#135 = DIRECTION('',(0.,0.,1.));
#136 = PLANE('',#137);
#137 = AXIS2_PLACEMENT_3D('',#138,#139,#140);
#138 = CARTESIAN_POINT('',(41.9,0.,0.));
#139 = DIRECTION('',(-1.,0.,0.));
#140 = DIRECTION('',(0.,2.2E-16,1.));
#141 = ADVANCED_FACE('',(#142,#153,#164,#175,#186,#236,#247),#258,.T.);
#142 = FACE_BOUND('',#143,.T.);
#143 = EDGE_LOOP('',(#144,#145,#146,#152));
#144 = ORIENTED_EDGE('',*,*,#69,.F.);
#145 = ORIENTED_EDGE('',*,*,#100,.F.);
#146 = ORIENTED_EDGE('',*,*,#147,.F.);
#147 = EDGE_CURVE('',#124,#84,#148,.T.);
#148 = LINE('',#149,#150);
#149 = CARTESIAN_POINT('',(41.9,0.,98.4));
#150 = VECTOR('',#151,1.);
#151 = DIRECTION('',(-1.,0.,0.));
#152 = ORIENTED_EDGE('',*,*,#131,.F.);
#153 = FACE_BOUND('',#154,.T.);
#154 = EDGE_LOOP('',(#155));
#155 = ORIENTED_EDGE('',*,*,#156,.T.);
#156 = EDGE_CURVE('',#157,#157,#159,.T.);
#157 = VERTEX_POINT('',#158);
#158 = CARTESIAN_POINT('',(-36.7,1.6E-14,20.));
#159 = CIRCLE('',#160,1.7);
#160 = AXIS2_PLACEMENT_3D('',#161,#162,#163);
#161 = CARTESIAN_POINT('',(-38.4,1.110223024625E-14,20.));
#162 = DIRECTION('',(0.,-1.,0.));
#163 = DIRECTION('',(1.,0.,0.));
#164 = FACE_BOUND('',#165,.T.);
#165 = EDGE_LOOP('',(#166));
#166 = ORIENTED_EDGE('',*,*,#167,.T.);
#167 = EDGE_CURVE('',#168,#168,#170,.T.);
#168 = VERTEX_POINT('',#169);
#169 = CARTESIAN_POINT('',(1.7,1.2E-14,5.));
#170 = CIRCLE('',#171,1.7);
#171 = AXIS2_PLACEMENT_3D('',#172,#173,#174);
#172 = CARTESIAN_POINT('',(0.,1.110223024625E-14,5.));
#173 = DIRECTION('',(0.,-1.,0.));
#174 = DIRECTION('',(1.,0.,0.));
#175 = FACE_BOUND('',#176,.T.);
#176 = EDGE_LOOP('',(#177));
#177 = ORIENTED_EDGE('',*,*,#178,.T.);
#178 = EDGE_CURVE('',#179,#179,#181,.T.);
#179 = VERTEX_POINT('',#180);
#180 = CARTESIAN_POINT('',(-36.7,3.2E-14,94.9));
#181 = CIRCLE('',#182,1.7);
#182 = AXIS2_PLACEMENT_3D('',#183,#184,#185);
#183 = CARTESIAN_POINT('',(-38.4,1.110223024625E-14,94.9));
#184 = DIRECTION('',(0.,-1.,0.));
#185 = DIRECTION('',(1.,0.,0.));
#186 = FACE_BOUND('',#187,.T.);
#187 = EDGE_LOOP('',(#188,#198,#206,#214,#222,#230));
#188 = ORIENTED_EDGE('',*,*,#189,.F.);
#189 = EDGE_CURVE('',#190,#192,#194,.T.);
#190 = VERTEX_POINT('',#191);
#191 = CARTESIAN_POINT('',(-30.,2.6E-14,68.431555336381));
#192 = VERTEX_POINT('',#193);
#193 = CARTESIAN_POINT('',(-30.,2.7E-14,73.431555336381));
#194 = LINE('',#195,#196);
#195 = CARTESIAN_POINT('',(-30.,1.1E-14,68.431555336381));
#196 = VECTOR('',#197,1.);
#197 = DIRECTION('',(0.,0.,1.));
#198 = ORIENTED_EDGE('',*,*,#199,.T.);
#199 = EDGE_CURVE('',#190,#200,#202,.T.);
#200 = VERTEX_POINT('',#201);
#201 = CARTESIAN_POINT('',(-2.5,2.6E-14,68.431555336381));
#202 = LINE('',#203,#204);
#203 = CARTESIAN_POINT('',(-30.,1.1E-14,68.431555336381));
#204 = VECTOR('',#205,1.);
#205 = DIRECTION('',(1.,0.,0.));
#206 = ORIENTED_EDGE('',*,*,#207,.F.);
#207 = EDGE_CURVE('',#208,#200,#210,.T.);
#208 = VERTEX_POINT('',#209);
#209 = CARTESIAN_POINT('',(2.5,2.6E-14,68.431555));
#210 = LINE('',#211,#212);
#211 = CARTESIAN_POINT('',(2.5,1.1E-14,68.431555));
#212 = VECTOR('',#213,1.);
#213 = DIRECTION('',(-1.,0.,6.727625816E-08));
#214 = ORIENTED_EDGE('',*,*,#215,.F.);
#215 = EDGE_CURVE('',#216,#208,#218,.T.);
#216 = VERTEX_POINT('',#217);
#217 = CARTESIAN_POINT('',(27.5,2.6E-14,68.431555));
#218 = LINE('',#219,#220);
#219 = CARTESIAN_POINT('',(27.5,1.1E-14,68.431555));
#220 = VECTOR('',#221,1.);
#221 = DIRECTION('',(-1.,0.,0.));
#222 = ORIENTED_EDGE('',*,*,#223,.F.);
#223 = EDGE_CURVE('',#224,#216,#226,.T.);
#224 = VERTEX_POINT('',#225);
#225 = CARTESIAN_POINT('',(27.499999999998,2.7E-14,73.431555336381));
#226 = LINE('',#227,#228);
#227 = CARTESIAN_POINT('',(27.499999999998,1.1E-14,73.431555336381));
#228 = VECTOR('',#229,1.);
#229 = DIRECTION('',(3.7801E-13,0.,-1.));
#230 = ORIENTED_EDGE('',*,*,#231,.T.);
#231 = EDGE_CURVE('',#224,#192,#232,.T.);
#232 = LINE('',#233,#234);
#233 = CARTESIAN_POINT('',(27.499999999998,2.723E-14,73.431555336381));
#234 = VECTOR('',#235,1.);
#235 = DIRECTION('',(-1.,0.,0.));
#236 = FACE_BOUND('',#237,.T.);
#237 = EDGE_LOOP('',(#238));
#238 = ORIENTED_EDGE('',*,*,#239,.T.);
#239 = EDGE_CURVE('',#240,#240,#242,.T.);
#240 = VERTEX_POINT('',#241);
#241 = CARTESIAN_POINT('',(40.1,1.6E-14,20.));
#242 = CIRCLE('',#243,1.7);
#243 = AXIS2_PLACEMENT_3D('',#244,#245,#246);
#244 = CARTESIAN_POINT('',(38.4,1.110223024625E-14,20.));
#245 = DIRECTION('',(0.,-1.,0.));
#246 = DIRECTION('',(1.,0.,0.));
#247 = FACE_BOUND('',#248,.T.);
#248 = EDGE_LOOP('',(#249));
#249 = ORIENTED_EDGE('',*,*,#250,.T.);
#250 = EDGE_CURVE('',#251,#251,#253,.T.);
#251 = VERTEX_POINT('',#252);
#252 = CARTESIAN_POINT('',(40.1,3.2E-14,94.9));
#253 = CIRCLE('',#254,1.7);
#254 = AXIS2_PLACEMENT_3D('',#255,#256,#257);
#255 = CARTESIAN_POINT('',(38.4,1.110223024625E-14,94.9));
#256 = DIRECTION('',(0.,-1.,0.));
#257 = DIRECTION('',(1.,0.,0.));
#258 = PLANE('',#259);
#259 = AXIS2_PLACEMENT_3D('',#260,#261,#262);
#260 = CARTESIAN_POINT('',(0.,1.092E-14,49.2));
#261 = DIRECTION('',(0.,1.,0.));
#262 = DIRECTION('',(0.,0.,1.));
#263 = ADVANCED_FACE('',(#264,#275,#286,#297,#308,#319),#330,.F.);
#264 = FACE_BOUND('',#265,.F.);
#265 = EDGE_LOOP('',(#266,#267,#268,#274));
#266 = ORIENTED_EDGE('',*,*,#53,.F.);
#267 = ORIENTED_EDGE('',*,*,#93,.F.);
#268 = ORIENTED_EDGE('',*,*,#269,.F.);
#269 = EDGE_CURVE('',#116,#86,#270,.T.);
#270 = LINE('',#271,#272);
#271 = CARTESIAN_POINT('',(41.9,-2.4,98.4));
#272 = VECTOR('',#273,1.);
#273 = DIRECTION('',(-1.,0.,0.));
#274 = ORIENTED_EDGE('',*,*,#115,.F.);
#275 = FACE_BOUND('',#276,.F.);
#276 = EDGE_LOOP('',(#277));
#277 = ORIENTED_EDGE('',*,*,#278,.T.);
#278 = EDGE_CURVE('',#279,#279,#281,.T.);
#279 = VERTEX_POINT('',#280);
#280 = CARTESIAN_POINT('',(-36.7,-2.4,20.));
#281 = CIRCLE('',#282,1.7);
#282 = AXIS2_PLACEMENT_3D('',#283,#284,#285);
#283 = CARTESIAN_POINT('',(-38.4,-2.4,20.));
#284 = DIRECTION('',(0.,-1.,0.));
#285 = DIRECTION('',(1.,0.,0.));
#286 = FACE_BOUND('',#287,.F.);
#287 = EDGE_LOOP('',(#288));
#288 = ORIENTED_EDGE('',*,*,#289,.T.);
#289 = EDGE_CURVE('',#290,#290,#292,.T.);
#290 = VERTEX_POINT('',#291);
#291 = CARTESIAN_POINT('',(1.7,-2.4,5.));
#292 = CIRCLE('',#293,1.7);
#293 = AXIS2_PLACEMENT_3D('',#294,#295,#296);
#294 = CARTESIAN_POINT('',(0.,-2.4,5.));
#295 = DIRECTION('',(0.,-1.,0.));
#296 = DIRECTION('',(1.,0.,0.));
#297 = FACE_BOUND('',#298,.F.);
#298 = EDGE_LOOP('',(#299));
#299 = ORIENTED_EDGE('',*,*,#300,.T.);
#300 = EDGE_CURVE('',#301,#301,#303,.T.);
#301 = VERTEX_POINT('',#302);
#302 = CARTESIAN_POINT('',(-36.7,-2.4,94.9));
#303 = CIRCLE('',#304,1.7);
#304 = AXIS2_PLACEMENT_3D('',#305,#306,#307);
#305 = CARTESIAN_POINT('',(-38.4,-2.4,94.9));
#306 = DIRECTION('',(0.,-1.,0.));
#307 = DIRECTION('',(1.,0.,0.));
#308 = FACE_BOUND('',#309,.F.);
#309 = EDGE_LOOP('',(#310));
#310 = ORIENTED_EDGE('',*,*,#311,.T.);
#311 = EDGE_CURVE('',#312,#312,#314,.T.);
#312 = VERTEX_POINT('',#313);
#313 = CARTESIAN_POINT('',(40.1,-2.4,20.));
#314 = CIRCLE('',#315,1.7);
#315 = AXIS2_PLACEMENT_3D('',#316,#317,#318);
#316 = CARTESIAN_POINT('',(38.4,-2.4,20.));
#317 = DIRECTION('',(0.,-1.,0.));
#318 = DIRECTION('',(1.,0.,0.));
#319 = FACE_BOUND('',#320,.F.);
#320 = EDGE_LOOP('',(#321));
#321 = ORIENTED_EDGE('',*,*,#322,.T.);
#322 = EDGE_CURVE('',#323,#323,#325,.T.);
#323 = VERTEX_POINT('',#324);
#324 = CARTESIAN_POINT('',(40.1,-2.4,94.9));
#325 = CIRCLE('',#326,1.7);
#326 = AXIS2_PLACEMENT_3D('',#327,#328,#329);
#327 = CARTESIAN_POINT('',(38.4,-2.4,94.9));
#328 = DIRECTION('',(0.,-1.,0.));
#329 = DIRECTION('',(1.,0.,0.));
#330 = PLANE('',#331);
#331 = AXIS2_PLACEMENT_3D('',#332,#333,#334);
#332 = CARTESIAN_POINT('',(0.,-2.4,49.2));
#333 = DIRECTION('',(0.,1.,0.));
#334 = DIRECTION('',(0.,0.,1.));
#335 = ADVANCED_FACE('',(#336),#342,.F.);
#336 = FACE_BOUND('',#337,.F.);
#337 = EDGE_LOOP('',(#338,#339,#340,#341));
#338 = ORIENTED_EDGE('',*,*,#123,.T.);
#339 = ORIENTED_EDGE('',*,*,#269,.T.);
#340 = ORIENTED_EDGE('',*,*,#83,.F.);
#341 = ORIENTED_EDGE('',*,*,#147,.F.);
#342 = PLANE('',#343);
#343 = AXIS2_PLACEMENT_3D('',#344,#345,#346);
#344 = CARTESIAN_POINT('',(41.9,2.185E-14,98.4));
#345 = DIRECTION('',(-0.,-2.2E-16,-1.));
#346 = DIRECTION('',(-1.,0.,0.));
#347 = ADVANCED_FACE('',(#348),#359,.F.);
#348 = FACE_BOUND('',#349,.F.);
#349 = EDGE_LOOP('',(#350,#356,#357,#358));
#350 = ORIENTED_EDGE('',*,*,#351,.T.);
#351 = EDGE_CURVE('',#279,#157,#352,.T.);
#352 = LINE('',#353,#354);
#353 = CARTESIAN_POINT('',(-36.7,-2.4,20.));
#354 = VECTOR('',#355,1.);
#355 = DIRECTION('',(0.,1.,-2.2E-16));
#356 = ORIENTED_EDGE('',*,*,#156,.T.);
#357 = ORIENTED_EDGE('',*,*,#351,.F.);
#358 = ORIENTED_EDGE('',*,*,#278,.F.);
#359 = CYLINDRICAL_SURFACE('',#360,1.7);
#360 = AXIS2_PLACEMENT_3D('',#361,#362,#363);
#361 = CARTESIAN_POINT('',(-38.4,-2.4,20.));
#362 = DIRECTION('',(0.,-1.,2.2E-16));
#363 = DIRECTION('',(1.,0.,0.));
#364 = ADVANCED_FACE('',(#365),#376,.F.);
#365 = FACE_BOUND('',#366,.F.);
#366 = EDGE_LOOP('',(#367,#373,#374,#375));
#367 = ORIENTED_EDGE('',*,*,#368,.T.);
#368 = EDGE_CURVE('',#290,#168,#369,.T.);
#369 = LINE('',#370,#371);
#370 = CARTESIAN_POINT('',(1.7,-2.4,5.));
#371 = VECTOR('',#372,1.);
#372 = DIRECTION('',(0.,1.,-2.2E-16));
#373 = ORIENTED_EDGE('',*,*,#167,.T.);
#374 = ORIENTED_EDGE('',*,*,#368,.F.);
#375 = ORIENTED_EDGE('',*,*,#289,.F.);
#376 = CYLINDRICAL_SURFACE('',#377,1.7);
#377 = AXIS2_PLACEMENT_3D('',#378,#379,#380);
#378 = CARTESIAN_POINT('',(0.,-2.4,5.));
#379 = DIRECTION('',(0.,-1.,2.2E-16));
#380 = DIRECTION('',(1.,0.,0.));
#381 = ADVANCED_FACE('',(#382),#393,.F.);
#382 = FACE_BOUND('',#383,.F.);
#383 = EDGE_LOOP('',(#384,#390,#391,#392));
#384 = ORIENTED_EDGE('',*,*,#385,.T.);
#385 = EDGE_CURVE('',#301,#179,#386,.T.);
#386 = LINE('',#387,#388);
#387 = CARTESIAN_POINT('',(-36.7,-2.4,94.9));
#388 = VECTOR('',#389,1.);
#389 = DIRECTION('',(0.,1.,-2.2E-16));
#390 = ORIENTED_EDGE('',*,*,#178,.T.);
#391 = ORIENTED_EDGE('',*,*,#385,.F.);
#392 = ORIENTED_EDGE('',*,*,#300,.F.);
#393 = CYLINDRICAL_SURFACE('',#394,1.7);
#394 = AXIS2_PLACEMENT_3D('',#395,#396,#397);
#395 = CARTESIAN_POINT('',(-38.4,-2.4,94.9));
#396 = DIRECTION('',(0.,-1.,2.2E-16));
#397 = DIRECTION('',(1.,0.,0.));
#398 = ADVANCED_FACE('',(#399),#424,.F.);
#399 = FACE_BOUND('',#400,.F.);
#400 = EDGE_LOOP('',(#401,#409,#417,#423));
#401 = ORIENTED_EDGE('',*,*,#402,.T.);
#402 = EDGE_CURVE('',#190,#403,#405,.T.);
#403 = VERTEX_POINT('',#404);
#404 = CARTESIAN_POINT('',(-30.,4.,68.431555336381));
#405 = LINE('',#406,#407);
#406 = CARTESIAN_POINT('',(-30.,2.611E-14,68.431555336381));
#407 = VECTOR('',#408,1.);
#408 = DIRECTION('',(0.,1.,-2.2E-16));
#409 = ORIENTED_EDGE('',*,*,#410,.T.);
#410 = EDGE_CURVE('',#403,#411,#413,.T.);
#411 = VERTEX_POINT('',#412);
#412 = CARTESIAN_POINT('',(-30.,4.,73.431555336381));
#413 = LINE('',#414,#415);
#414 = CARTESIAN_POINT('',(-30.,4.,68.431555336381));
#415 = VECTOR('',#416,1.);
#416 = DIRECTION('',(0.,0.,1.));
#417 = ORIENTED_EDGE('',*,*,#418,.F.);
#418 = EDGE_CURVE('',#192,#411,#419,.T.);
#419 = LINE('',#420,#421);
#420 = CARTESIAN_POINT('',(-30.,2.723E-14,73.431555336381));
#421 = VECTOR('',#422,1.);
#422 = DIRECTION('',(0.,1.,-2.2E-16));
#423 = ORIENTED_EDGE('',*,*,#189,.F.);
#424 = PLANE('',#425);
#425 = AXIS2_PLACEMENT_3D('',#426,#427,#428);
#426 = CARTESIAN_POINT('',(-30.,2.611E-14,68.431555336381));
#427 = DIRECTION('',(1.,0.,0.));
#428 = DIRECTION('',(0.,2.2E-16,1.));
#429 = ADVANCED_FACE('',(#430),#448,.T.);
#430 = FACE_BOUND('',#431,.T.);
#431 = EDGE_LOOP('',(#432,#433,#434,#442));
#432 = ORIENTED_EDGE('',*,*,#418,.F.);
#433 = ORIENTED_EDGE('',*,*,#231,.F.);
#434 = ORIENTED_EDGE('',*,*,#435,.T.);
#435 = EDGE_CURVE('',#224,#436,#438,.T.);
#436 = VERTEX_POINT('',#437);
#437 = CARTESIAN_POINT('',(27.499999999998,4.,73.431555336381));
#438 = LINE('',#439,#440);
#439 = CARTESIAN_POINT('',(27.499999999998,2.723E-14,73.431555336381));
#440 = VECTOR('',#441,1.);
#441 = DIRECTION('',(0.,1.,-2.2E-16));
#442 = ORIENTED_EDGE('',*,*,#443,.F.);
#443 = EDGE_CURVE('',#411,#436,#444,.T.);
#444 = LINE('',#445,#446);
#445 = CARTESIAN_POINT('',(-30.,4.,73.431555336381));
#446 = VECTOR('',#447,1.);
#447 = DIRECTION('',(1.,0.,0.));
#448 = PLANE('',#449);
#449 = AXIS2_PLACEMENT_3D('',#450,#451,#452);
#450 = CARTESIAN_POINT('',(-1.250000000001,2.,73.431555336381));
#451 = DIRECTION('',(0.,0.,1.));
#452 = DIRECTION('',(1.,0.,0.));
#453 = ADVANCED_FACE('',(#454),#472,.F.);
#454 = FACE_BOUND('',#455,.F.);
#455 = EDGE_LOOP('',(#456,#457,#465,#471));
#456 = ORIENTED_EDGE('',*,*,#435,.T.);
#457 = ORIENTED_EDGE('',*,*,#458,.T.);
#458 = EDGE_CURVE('',#436,#459,#461,.T.);
#459 = VERTEX_POINT('',#460);
#460 = CARTESIAN_POINT('',(27.5,4.,68.431555));
#461 = LINE('',#462,#463);
#462 = CARTESIAN_POINT('',(27.499999999998,4.,73.431555336381));
#463 = VECTOR('',#464,1.);
#464 = DIRECTION('',(3.7801E-13,0.,-1.));
#465 = ORIENTED_EDGE('',*,*,#466,.F.);
#466 = EDGE_CURVE('',#216,#459,#467,.T.);
#467 = LINE('',#468,#469);
#468 = CARTESIAN_POINT('',(27.5,2.611E-14,68.431555));
#469 = VECTOR('',#470,1.);
#470 = DIRECTION('',(0.,1.,-2.2E-16));
#471 = ORIENTED_EDGE('',*,*,#223,.F.);
#472 = PLANE('',#473);
#473 = AXIS2_PLACEMENT_3D('',#474,#475,#476);
#474 = CARTESIAN_POINT('',(27.499999999998,2.723E-14,73.431555336381));
#475 = DIRECTION('',(-1.,-0.,-3.7801E-13));
#476 = DIRECTION('',(3.7801E-13,-2.2E-16,-1.));
#477 = ADVANCED_FACE('',(#478),#505,.T.);
#478 = FACE_BOUND('',#479,.T.);
#479 = EDGE_LOOP('',(#480,#481,#482,#483,#491,#499));
#480 = ORIENTED_EDGE('',*,*,#466,.F.);
#481 = ORIENTED_EDGE('',*,*,#215,.T.);
#482 = ORIENTED_EDGE('',*,*,#207,.T.);
#483 = ORIENTED_EDGE('',*,*,#484,.T.);
#484 = EDGE_CURVE('',#200,#485,#487,.T.);
#485 = VERTEX_POINT('',#486);
#486 = CARTESIAN_POINT('',(-2.5,4.,68.431555336381));
#487 = LINE('',#488,#489);
#488 = CARTESIAN_POINT('',(-2.5,2.611E-14,68.431555336381));
#489 = VECTOR('',#490,1.);
#490 = DIRECTION('',(0.,1.,-2.2E-16));
#491 = ORIENTED_EDGE('',*,*,#492,.F.);
#492 = EDGE_CURVE('',#493,#485,#495,.T.);
#493 = VERTEX_POINT('',#494);
#494 = CARTESIAN_POINT('',(2.5,4.,68.431555));
#495 = LINE('',#496,#497);
#496 = CARTESIAN_POINT('',(2.5,4.,68.431555));
#497 = VECTOR('',#498,1.);
#498 = DIRECTION('',(-1.,0.,6.727625816E-08));
#499 = ORIENTED_EDGE('',*,*,#500,.F.);
#500 = EDGE_CURVE('',#459,#493,#501,.T.);
#501 = LINE('',#502,#503);
#502 = CARTESIAN_POINT('',(27.5,4.,68.431555));
#503 = VECTOR('',#504,1.);
#504 = DIRECTION('',(-1.,0.,0.));
#505 = PLANE('',#506);
#506 = AXIS2_PLACEMENT_3D('',#507,#508,#509);
#507 = CARTESIAN_POINT('',(12.5,2.,68.431555044521));
#508 = DIRECTION('',(-3.93172937E-09,-0.,-1.));
#509 = DIRECTION('',(-1.,0.,3.93172937E-09));
#510 = ADVANCED_FACE('',(#511),#522,.T.);
#511 = FACE_BOUND('',#512,.T.);
#512 = EDGE_LOOP('',(#513,#514,#520,#521));
#513 = ORIENTED_EDGE('',*,*,#402,.T.);
#514 = ORIENTED_EDGE('',*,*,#515,.T.);
#515 = EDGE_CURVE('',#403,#485,#516,.T.);
#516 = LINE('',#517,#518);
#517 = CARTESIAN_POINT('',(-30.,4.,68.431555336381));
#518 = VECTOR('',#519,1.);
#519 = DIRECTION('',(1.,0.,0.));
#520 = ORIENTED_EDGE('',*,*,#484,.F.);
#521 = ORIENTED_EDGE('',*,*,#199,.F.);
#522 = PLANE('',#523);
#523 = AXIS2_PLACEMENT_3D('',#524,#525,#526);
#524 = CARTESIAN_POINT('',(-30.,2.611E-14,68.431555336381));
#525 = DIRECTION('',(0.,-2.2E-16,-1.));
#526 = DIRECTION('',(1.,0.,0.));
#527 = ADVANCED_FACE('',(#528),#539,.F.);
#528 = FACE_BOUND('',#529,.F.);
#529 = EDGE_LOOP('',(#530,#536,#537,#538));
#530 = ORIENTED_EDGE('',*,*,#531,.T.);
#531 = EDGE_CURVE('',#312,#240,#532,.T.);
#532 = LINE('',#533,#534);
#533 = CARTESIAN_POINT('',(40.1,-2.4,20.));
#534 = VECTOR('',#535,1.);
#535 = DIRECTION('',(0.,1.,-2.2E-16));
#536 = ORIENTED_EDGE('',*,*,#239,.T.);
#537 = ORIENTED_EDGE('',*,*,#531,.F.);
#538 = ORIENTED_EDGE('',*,*,#311,.F.);
#539 = CYLINDRICAL_SURFACE('',#540,1.7);
#540 = AXIS2_PLACEMENT_3D('',#541,#542,#543);
#541 = CARTESIAN_POINT('',(38.4,-2.4,20.));
#542 = DIRECTION('',(0.,-1.,2.2E-16));
#543 = DIRECTION('',(1.,0.,0.));
#544 = ADVANCED_FACE('',(#545),#556,.F.);
#545 = FACE_BOUND('',#546,.F.);
#546 = EDGE_LOOP('',(#547,#553,#554,#555));
#547 = ORIENTED_EDGE('',*,*,#548,.T.);
#548 = EDGE_CURVE('',#323,#251,#549,.T.);
#549 = LINE('',#550,#551);
#550 = CARTESIAN_POINT('',(40.1,-2.4,94.9));
#551 = VECTOR('',#552,1.);
#552 = DIRECTION('',(0.,1.,-2.2E-16));
#553 = ORIENTED_EDGE('',*,*,#250,.T.);
#554 = ORIENTED_EDGE('',*,*,#548,.F.);
#555 = ORIENTED_EDGE('',*,*,#322,.F.);
#556 = CYLINDRICAL_SURFACE('',#557,1.7);
#557 = AXIS2_PLACEMENT_3D('',#558,#559,#560);
#558 = CARTESIAN_POINT('',(38.4,-2.4,94.9));
#559 = DIRECTION('',(0.,-1.,2.2E-16));
#560 = DIRECTION('',(1.,0.,0.));
#561 = ADVANCED_FACE('',(#562),#570,.T.);
#562 = FACE_BOUND('',#563,.T.);
#563 = EDGE_LOOP('',(#564,#565,#566,#567,#568,#569));
#564 = ORIENTED_EDGE('',*,*,#410,.T.);
#565 = ORIENTED_EDGE('',*,*,#443,.T.);
#566 = ORIENTED_EDGE('',*,*,#458,.T.);
#567 = ORIENTED_EDGE('',*,*,#500,.T.);
#568 = ORIENTED_EDGE('',*,*,#492,.T.);
#569 = ORIENTED_EDGE('',*,*,#515,.F.);
#570 = PLANE('',#571);
#571 = AXIS2_PLACEMENT_3D('',#572,#573,#574);
#572 = CARTESIAN_POINT('',(-1.249999922633,4.,70.93155525565));
#573 = DIRECTION('',(0.,1.,-2.2E-16));
#574 = DIRECTION('',(0.,2.2E-16,1.));
#575 = ( GEOMETRIC_REPRESENTATION_CONTEXT(3) 
GLOBAL_UNCERTAINTY_ASSIGNED_CONTEXT((#579)) GLOBAL_UNIT_ASSIGNED_CONTEXT
((#576,#577,#578)) REPRESENTATION_CONTEXT('Context #1',
  '3D Context with UNIT and UNCERTAINTY') );
#576 = ( LENGTH_UNIT() NAMED_UNIT(*) SI_UNIT(.MILLI.,.METRE.) );
#577 = ( NAMED_UNIT(*) PLANE_ANGLE_UNIT() SI_UNIT($,.RADIAN.) );
#578 = ( NAMED_UNIT(*) SI_UNIT($,.STERADIAN.) SOLID_ANGLE_UNIT() );
#579 = UNCERTAINTY_MEASURE_WITH_UNIT(LENGTH_MEASURE(1.E-07),#576,
  'distance_accuracy_value','confusion accuracy');
#580 = CONTEXT_DEPENDENT_SHAPE_REPRESENTATION(#581,#583);
#581 = ( REPRESENTATION_RELATIONSHIP('','',#36,#10) 
REPRESENTATION_RELATIONSHIP_WITH_TRANSFORMATION(#582) 
SHAPE_REPRESENTATION_RELATIONSHIP() );
#582 = ITEM_DEFINED_TRANSFORMATION('','',#11,#15);
#583 = PRODUCT_DEFINITION_SHAPE('Placement','Placement of an item',#584
  );
#584 = NEXT_ASSEMBLY_USAGE_OCCURRENCE('1','OpeningFace','',#5,#31,$);
#585 = PRODUCT_RELATED_PRODUCT_CATEGORY('part',$,(#33));
#586 = SHAPE_DEFINITION_REPRESENTATION(#587,#593);
#587 = PRODUCT_DEFINITION_SHAPE('','',#588);
#588 = PRODUCT_DEFINITION('design','',#589,#592);
#589 = PRODUCT_DEFINITION_FORMATION('','',#590);
#590 = PRODUCT('MainChargerBody','MainChargerBody','',(#591));
#591 = PRODUCT_CONTEXT('',#2,'mechanical');
#592 = PRODUCT_DEFINITION_CONTEXT('part definition',#2,'design');
#593 = ADVANCED_BREP_SHAPE_REPRESENTATION('',(#11,#594),#2225);
#594 = MANIFOLD_SOLID_BREP('',#595);
#595 = CLOSED_SHELL('',(#596,#669,#700,#1066,#1084,#1144,#1161,#1175,
    #1231,#1259,#1305,#1352,#1370,#1395,#1413,#1446,#1470,#1494,#1518,
    #1542,#1582,#1607,#1688,#1723,#1754,#1778,#1802,#1826,#1843,#1868,
    #1893,#1918,#1943,#1968,#1990,#2007,#2024,#2036,#2047,#2059,#2084,
    #2109,#2119,#2139,#2150,#2162,#2171,#2180,#2189,#2198,#2207,#2216));
#596 = ADVANCED_FACE('',(#597),#664,.F.);
#597 = FACE_BOUND('',#598,.F.);
#598 = EDGE_LOOP('',(#599,#609,#617,#625,#633,#641,#650,#658));
#599 = ORIENTED_EDGE('',*,*,#600,.F.);
#600 = EDGE_CURVE('',#601,#603,#605,.T.);
#601 = VERTEX_POINT('',#602);
#602 = CARTESIAN_POINT('',(-41.9,29.9,0.));
#603 = VERTEX_POINT('',#604);
#604 = CARTESIAN_POINT('',(-41.9,-27.5,-1.E-15));
#605 = LINE('',#606,#607);
#606 = CARTESIAN_POINT('',(-41.9,29.9,0.));
#607 = VECTOR('',#608,1.);
#608 = DIRECTION('',(0.,-1.,0.));
#609 = ORIENTED_EDGE('',*,*,#610,.T.);
#610 = EDGE_CURVE('',#601,#611,#613,.T.);
#611 = VERTEX_POINT('',#612);
#612 = CARTESIAN_POINT('',(-41.9,29.9,98.4));
#613 = LINE('',#614,#615);
#614 = CARTESIAN_POINT('',(-41.9,29.9,0.));
#615 = VECTOR('',#616,1.);
#616 = DIRECTION('',(0.,0.,1.));
#617 = ORIENTED_EDGE('',*,*,#618,.T.);
#618 = EDGE_CURVE('',#611,#619,#621,.T.);
#619 = VERTEX_POINT('',#620);
#620 = CARTESIAN_POINT('',(-41.9,-27.5,98.4));
#621 = LINE('',#622,#623);
#622 = CARTESIAN_POINT('',(-41.9,29.9,98.4));
#623 = VECTOR('',#624,1.);
#624 = DIRECTION('',(0.,-1.,0.));
#625 = ORIENTED_EDGE('',*,*,#626,.F.);
#626 = EDGE_CURVE('',#627,#619,#629,.T.);
#627 = VERTEX_POINT('',#628);
#628 = CARTESIAN_POINT('',(-41.9,-27.5,94.9));
#629 = LINE('',#630,#631);
#630 = CARTESIAN_POINT('',(-41.9,-27.5,-1.E-15));
#631 = VECTOR('',#632,1.);
#632 = DIRECTION('',(0.,0.,1.));
#633 = ORIENTED_EDGE('',*,*,#634,.F.);
#634 = EDGE_CURVE('',#635,#627,#637,.T.);
#635 = VERTEX_POINT('',#636);
#636 = CARTESIAN_POINT('',(-41.9,-27.5,37.322649545167));
#637 = LINE('',#638,#639);
#638 = CARTESIAN_POINT('',(-41.9,-27.5,-1.E-15));
#639 = VECTOR('',#640,1.);
#640 = DIRECTION('',(0.,0.,1.));
#641 = ORIENTED_EDGE('',*,*,#642,.F.);
#642 = EDGE_CURVE('',#643,#635,#645,.T.);
#643 = VERTEX_POINT('',#644);
#644 = CARTESIAN_POINT('',(-41.9,-27.5,29.322649545167));
#645 = CIRCLE('',#646,4.);
#646 = AXIS2_PLACEMENT_3D('',#647,#648,#649);
#647 = CARTESIAN_POINT('',(-41.9,-27.5,33.322649545167));
#648 = DIRECTION('',(1.,0.,0.));
#649 = DIRECTION('',(0.,1.,0.));
#650 = ORIENTED_EDGE('',*,*,#651,.F.);
#651 = EDGE_CURVE('',#652,#643,#654,.T.);
#652 = VERTEX_POINT('',#653);
#653 = CARTESIAN_POINT('',(-41.9,-27.5,20.));
#654 = LINE('',#655,#656);
#655 = CARTESIAN_POINT('',(-41.9,-27.5,-1.E-15));
#656 = VECTOR('',#657,1.);
#657 = DIRECTION('',(0.,0.,1.));
#658 = ORIENTED_EDGE('',*,*,#659,.F.);
#659 = EDGE_CURVE('',#603,#652,#660,.T.);
#660 = LINE('',#661,#662);
#661 = CARTESIAN_POINT('',(-41.9,-27.5,-1.E-15));
#662 = VECTOR('',#663,1.);
#663 = DIRECTION('',(0.,0.,1.));
#664 = PLANE('',#665);
#665 = AXIS2_PLACEMENT_3D('',#666,#667,#668);
#666 = CARTESIAN_POINT('',(-41.9,29.9,0.));
#667 = DIRECTION('',(1.,0.,0.));
#668 = DIRECTION('',(0.,-1.,0.));
#669 = ADVANCED_FACE('',(#670),#695,.T.);
#670 = FACE_BOUND('',#671,.T.);
#671 = EDGE_LOOP('',(#672,#673,#681,#689));
#672 = ORIENTED_EDGE('',*,*,#600,.F.);
#673 = ORIENTED_EDGE('',*,*,#674,.F.);
#674 = EDGE_CURVE('',#675,#601,#677,.T.);
#675 = VERTEX_POINT('',#676);
#676 = CARTESIAN_POINT('',(41.9,29.9,0.));
#677 = LINE('',#678,#679);
#678 = CARTESIAN_POINT('',(41.9,29.9,0.));
#679 = VECTOR('',#680,1.);
#680 = DIRECTION('',(-1.,0.,0.));
#681 = ORIENTED_EDGE('',*,*,#682,.F.);
#682 = EDGE_CURVE('',#683,#675,#685,.T.);
#683 = VERTEX_POINT('',#684);
#684 = CARTESIAN_POINT('',(41.9,-27.5,-1.E-15));
#685 = LINE('',#686,#687);
#686 = CARTESIAN_POINT('',(41.9,-29.9,0.));
#687 = VECTOR('',#688,1.);
#688 = DIRECTION('',(0.,1.,0.));
#689 = ORIENTED_EDGE('',*,*,#690,.F.);
#690 = EDGE_CURVE('',#603,#683,#691,.T.);
#691 = LINE('',#692,#693);
#692 = CARTESIAN_POINT('',(-41.9,-27.5,-5.3E-16));
#693 = VECTOR('',#694,1.);
#694 = DIRECTION('',(1.,0.,0.));
#695 = PLANE('',#696);
#696 = AXIS2_PLACEMENT_3D('',#697,#698,#699);
#697 = CARTESIAN_POINT('',(-1.16E-15,1.2,3.41E-15));
#698 = DIRECTION('',(-0.,-0.,-1.));
#699 = DIRECTION('',(-1.,0.,0.));
#700 = ADVANCED_FACE('',(#701,#1006,#1017,#1028,#1039,#1050),#1061,.T.);
#701 = FACE_BOUND('',#702,.T.);
#702 = EDGE_LOOP('',(#703,#704,#705,#713,#721,#729,#737,#745,#751,#752,
    #753,#761,#769,#777,#785,#793,#801,#809,#817,#825,#833,#842,#851,
    #859,#868,#876,#884,#892,#900,#908,#916,#924,#932,#940,#949,#957,
    #965,#973,#982,#991,#999,#1005));
#703 = ORIENTED_EDGE('',*,*,#659,.F.);
#704 = ORIENTED_EDGE('',*,*,#690,.T.);
#705 = ORIENTED_EDGE('',*,*,#706,.T.);
#706 = EDGE_CURVE('',#683,#707,#709,.T.);
#707 = VERTEX_POINT('',#708);
#708 = CARTESIAN_POINT('',(41.9,-27.5,20.));
#709 = LINE('',#710,#711);
#710 = CARTESIAN_POINT('',(41.9,-27.5,-1.E-15));
#711 = VECTOR('',#712,1.);
#712 = DIRECTION('',(0.,0.,1.));
#713 = ORIENTED_EDGE('',*,*,#714,.T.);
#714 = EDGE_CURVE('',#707,#715,#717,.T.);
#715 = VERTEX_POINT('',#716);
#716 = CARTESIAN_POINT('',(41.9,-27.5,94.9));
#717 = LINE('',#718,#719);
#718 = CARTESIAN_POINT('',(41.9,-27.5,-1.E-15));
#719 = VECTOR('',#720,1.);
#720 = DIRECTION('',(0.,0.,1.));
#721 = ORIENTED_EDGE('',*,*,#722,.T.);
#722 = EDGE_CURVE('',#715,#723,#725,.T.);
#723 = VERTEX_POINT('',#724);
#724 = CARTESIAN_POINT('',(41.9,-27.5,98.4));
#725 = LINE('',#726,#727);
#726 = CARTESIAN_POINT('',(41.9,-27.5,-1.E-15));
#727 = VECTOR('',#728,1.);
#728 = DIRECTION('',(0.,0.,1.));
#729 = ORIENTED_EDGE('',*,*,#730,.F.);
#730 = EDGE_CURVE('',#731,#723,#733,.T.);
#731 = VERTEX_POINT('',#732);
#732 = CARTESIAN_POINT('',(38.4,-27.5,98.4));
#733 = LINE('',#734,#735);
#734 = CARTESIAN_POINT('',(-41.9,-27.5,98.4));
#735 = VECTOR('',#736,1.);
#736 = DIRECTION('',(1.,0.,0.));
#737 = ORIENTED_EDGE('',*,*,#738,.F.);
#738 = EDGE_CURVE('',#739,#731,#741,.T.);
#739 = VERTEX_POINT('',#740);
#740 = CARTESIAN_POINT('',(-38.4,-27.5,98.4));
#741 = LINE('',#742,#743);
#742 = CARTESIAN_POINT('',(-41.9,-27.5,98.4));
#743 = VECTOR('',#744,1.);
#744 = DIRECTION('',(1.,0.,0.));
#745 = ORIENTED_EDGE('',*,*,#746,.F.);
#746 = EDGE_CURVE('',#619,#739,#747,.T.);
#747 = LINE('',#748,#749);
#748 = CARTESIAN_POINT('',(-41.9,-27.5,98.4));
#749 = VECTOR('',#750,1.);
#750 = DIRECTION('',(1.,0.,0.));
#751 = ORIENTED_EDGE('',*,*,#626,.F.);
#752 = ORIENTED_EDGE('',*,*,#634,.F.);
#753 = ORIENTED_EDGE('',*,*,#754,.F.);
#754 = EDGE_CURVE('',#755,#635,#757,.T.);
#755 = VERTEX_POINT('',#756);
#756 = CARTESIAN_POINT('',(-39.5,-27.5,37.322649545167));
#757 = LINE('',#758,#759);
#758 = CARTESIAN_POINT('',(-39.5,-27.5,37.322649545167));
#759 = VECTOR('',#760,1.);
#760 = DIRECTION('',(-1.,-0.,-0.));
#761 = ORIENTED_EDGE('',*,*,#762,.T.);
#762 = EDGE_CURVE('',#755,#763,#765,.T.);
#763 = VERTEX_POINT('',#764);
#764 = CARTESIAN_POINT('',(-39.5,-27.5,66.));
#765 = LINE('',#766,#767);
#766 = CARTESIAN_POINT('',(-39.5,-27.5,0.));
#767 = VECTOR('',#768,1.);
#768 = DIRECTION('',(0.,0.,1.));
#769 = ORIENTED_EDGE('',*,*,#770,.F.);
#770 = EDGE_CURVE('',#771,#763,#773,.T.);
#771 = VERTEX_POINT('',#772);
#772 = CARTESIAN_POINT('',(27.5,-27.5,66.));
#773 = LINE('',#774,#775);
#774 = CARTESIAN_POINT('',(39.5,-27.5,66.));
#775 = VECTOR('',#776,1.);
#776 = DIRECTION('',(-1.,0.,0.));
#777 = ORIENTED_EDGE('',*,*,#778,.F.);
#778 = EDGE_CURVE('',#779,#771,#781,.T.);
#779 = VERTEX_POINT('',#780);
#780 = CARTESIAN_POINT('',(27.5,-27.5,68.));
#781 = LINE('',#782,#783);
#782 = CARTESIAN_POINT('',(27.5,-27.5,68.));
#783 = VECTOR('',#784,1.);
#784 = DIRECTION('',(-0.,-0.,-1.));
#785 = ORIENTED_EDGE('',*,*,#786,.F.);
#786 = EDGE_CURVE('',#787,#779,#789,.T.);
#787 = VERTEX_POINT('',#788);
#788 = CARTESIAN_POINT('',(-35.5,-27.5,68.));
#789 = LINE('',#790,#791);
#790 = CARTESIAN_POINT('',(0.,-27.5,68.));
#791 = VECTOR('',#792,1.);
#792 = DIRECTION('',(1.,0.,0.));
#793 = ORIENTED_EDGE('',*,*,#794,.T.);
#794 = EDGE_CURVE('',#787,#795,#797,.T.);
#795 = VERTEX_POINT('',#796);
#796 = CARTESIAN_POINT('',(-35.5,-27.5,73.));
#797 = LINE('',#798,#799);
#798 = CARTESIAN_POINT('',(-35.5,-27.5,68.));
#799 = VECTOR('',#800,1.);
#800 = DIRECTION('',(0.,0.,1.));
#801 = ORIENTED_EDGE('',*,*,#802,.T.);
#802 = EDGE_CURVE('',#795,#803,#805,.T.);
#803 = VERTEX_POINT('',#804);
#804 = CARTESIAN_POINT('',(-31.5,-27.5,73.));
#805 = LINE('',#806,#807);
#806 = CARTESIAN_POINT('',(-39.5,-27.5,73.));
#807 = VECTOR('',#808,1.);
#808 = DIRECTION('',(1.,0.,0.));
#809 = ORIENTED_EDGE('',*,*,#810,.F.);
#810 = EDGE_CURVE('',#811,#803,#813,.T.);
#811 = VERTEX_POINT('',#812);
#812 = CARTESIAN_POINT('',(-31.5,-27.5,75.));
#813 = LINE('',#814,#815);
#814 = CARTESIAN_POINT('',(-31.5,-27.5,75.));
#815 = VECTOR('',#816,1.);
#816 = DIRECTION('',(0.,0.,-1.));
#817 = ORIENTED_EDGE('',*,*,#818,.F.);
#818 = EDGE_CURVE('',#819,#811,#821,.T.);
#819 = VERTEX_POINT('',#820);
#820 = CARTESIAN_POINT('',(-39.5,-27.5,75.));
#821 = LINE('',#822,#823);
#822 = CARTESIAN_POINT('',(-39.5,-27.5,75.));
#823 = VECTOR('',#824,1.);
#824 = DIRECTION('',(1.,0.,0.));
#825 = ORIENTED_EDGE('',*,*,#826,.T.);
#826 = EDGE_CURVE('',#819,#827,#829,.T.);
#827 = VERTEX_POINT('',#828);
#828 = CARTESIAN_POINT('',(-39.5,-27.5,91.577350454833));
#829 = LINE('',#830,#831);
#830 = CARTESIAN_POINT('',(-39.5,-27.5,0.));
#831 = VECTOR('',#832,1.);
#832 = DIRECTION('',(0.,0.,1.));
#833 = ORIENTED_EDGE('',*,*,#834,.T.);
#834 = EDGE_CURVE('',#827,#835,#837,.T.);
#835 = VERTEX_POINT('',#836);
#836 = CARTESIAN_POINT('',(-34.9,-27.5,94.9));
#837 = CIRCLE('',#838,3.5);
#838 = AXIS2_PLACEMENT_3D('',#839,#840,#841);
#839 = CARTESIAN_POINT('',(-38.4,-27.5,94.9));
#840 = DIRECTION('',(0.,-1.,0.));
#841 = DIRECTION('',(1.,0.,0.));
#842 = ORIENTED_EDGE('',*,*,#843,.T.);
#843 = EDGE_CURVE('',#835,#844,#846,.T.);
#844 = VERTEX_POINT('',#845);
#845 = CARTESIAN_POINT('',(-35.07735045483,-27.5,96.));
#846 = CIRCLE('',#847,3.5);
#847 = AXIS2_PLACEMENT_3D('',#848,#849,#850);
#848 = CARTESIAN_POINT('',(-38.4,-27.5,94.9));
#849 = DIRECTION('',(0.,-1.,0.));
#850 = DIRECTION('',(1.,0.,0.));
#851 = ORIENTED_EDGE('',*,*,#852,.F.);
#852 = EDGE_CURVE('',#853,#844,#855,.T.);
#853 = VERTEX_POINT('',#854);
#854 = CARTESIAN_POINT('',(35.077350454833,-27.5,96.));
#855 = LINE('',#856,#857);
#856 = CARTESIAN_POINT('',(0.,-27.5,96.));
#857 = VECTOR('',#858,1.);
#858 = DIRECTION('',(-1.,0.,0.));
#859 = ORIENTED_EDGE('',*,*,#860,.T.);
#860 = EDGE_CURVE('',#853,#861,#863,.T.);
#861 = VERTEX_POINT('',#862);
#862 = CARTESIAN_POINT('',(39.5,-27.5,91.577350454833));
#863 = CIRCLE('',#864,3.5);
#864 = AXIS2_PLACEMENT_3D('',#865,#866,#867);
#865 = CARTESIAN_POINT('',(38.4,-27.5,94.9));
#866 = DIRECTION('',(0.,-1.,0.));
#867 = DIRECTION('',(1.,0.,0.));
#868 = ORIENTED_EDGE('',*,*,#869,.F.);
#869 = EDGE_CURVE('',#870,#861,#872,.T.);
#870 = VERTEX_POINT('',#871);
#871 = CARTESIAN_POINT('',(39.5,-27.5,75.));
#872 = LINE('',#873,#874);
#873 = CARTESIAN_POINT('',(39.5,-27.5,0.));
#874 = VECTOR('',#875,1.);
#875 = DIRECTION('',(0.,0.,1.));
#876 = ORIENTED_EDGE('',*,*,#877,.T.);
#877 = EDGE_CURVE('',#870,#878,#880,.T.);
#878 = VERTEX_POINT('',#879);
#879 = CARTESIAN_POINT('',(31.5,-27.5,75.));
#880 = LINE('',#881,#882);
#881 = CARTESIAN_POINT('',(39.5,-27.5,75.));
#882 = VECTOR('',#883,1.);
#883 = DIRECTION('',(-1.,0.,0.));
#884 = ORIENTED_EDGE('',*,*,#885,.F.);
#885 = EDGE_CURVE('',#886,#878,#888,.T.);
#886 = VERTEX_POINT('',#887);
#887 = CARTESIAN_POINT('',(31.5,-27.5,73.));
#888 = LINE('',#889,#890);
#889 = CARTESIAN_POINT('',(31.5,-27.5,73.));
#890 = VECTOR('',#891,1.);
#891 = DIRECTION('',(0.,0.,1.));
#892 = ORIENTED_EDGE('',*,*,#893,.F.);
#893 = EDGE_CURVE('',#894,#886,#896,.T.);
#894 = VERTEX_POINT('',#895);
#895 = CARTESIAN_POINT('',(35.5,-27.5,73.));
#896 = LINE('',#897,#898);
#897 = CARTESIAN_POINT('',(39.5,-27.5,73.));
#898 = VECTOR('',#899,1.);
#899 = DIRECTION('',(-1.,0.,0.));
#900 = ORIENTED_EDGE('',*,*,#901,.F.);
#901 = EDGE_CURVE('',#902,#894,#904,.T.);
#902 = VERTEX_POINT('',#903);
#903 = CARTESIAN_POINT('',(35.5,-27.5,68.));
#904 = LINE('',#905,#906);
#905 = CARTESIAN_POINT('',(35.5,-27.5,68.));
#906 = VECTOR('',#907,1.);
#907 = DIRECTION('',(0.,0.,1.));
#908 = ORIENTED_EDGE('',*,*,#909,.F.);
#909 = EDGE_CURVE('',#910,#902,#912,.T.);
#910 = VERTEX_POINT('',#911);
#911 = CARTESIAN_POINT('',(32.5,-27.5,68.));
#912 = LINE('',#913,#914);
#913 = CARTESIAN_POINT('',(0.,-27.5,68.));
#914 = VECTOR('',#915,1.);
#915 = DIRECTION('',(1.,0.,0.));
#916 = ORIENTED_EDGE('',*,*,#917,.T.);
#917 = EDGE_CURVE('',#910,#918,#920,.T.);
#918 = VERTEX_POINT('',#919);
#919 = CARTESIAN_POINT('',(32.5,-27.5,66.));
#920 = LINE('',#921,#922);
#921 = CARTESIAN_POINT('',(32.5,-27.5,68.));
#922 = VECTOR('',#923,1.);
#923 = DIRECTION('',(-0.,-0.,-1.));
#924 = ORIENTED_EDGE('',*,*,#925,.F.);
#925 = EDGE_CURVE('',#926,#918,#928,.T.);
#926 = VERTEX_POINT('',#927);
#927 = CARTESIAN_POINT('',(39.5,-27.5,66.));
#928 = LINE('',#929,#930);
#929 = CARTESIAN_POINT('',(39.5,-27.5,66.));
#930 = VECTOR('',#931,1.);
#931 = DIRECTION('',(-1.,0.,0.));
#932 = ORIENTED_EDGE('',*,*,#933,.F.);
#933 = EDGE_CURVE('',#934,#926,#936,.T.);
#934 = VERTEX_POINT('',#935);
#935 = CARTESIAN_POINT('',(39.5,-27.5,23.322649545167));
#936 = LINE('',#937,#938);
#937 = CARTESIAN_POINT('',(39.5,-27.5,0.));
#938 = VECTOR('',#939,1.);
#939 = DIRECTION('',(0.,0.,1.));
#940 = ORIENTED_EDGE('',*,*,#941,.T.);
#941 = EDGE_CURVE('',#934,#942,#944,.T.);
#942 = VERTEX_POINT('',#943);
#943 = CARTESIAN_POINT('',(39.5,-27.5,16.677350454833));
#944 = CIRCLE('',#945,3.5);
#945 = AXIS2_PLACEMENT_3D('',#946,#947,#948);
#946 = CARTESIAN_POINT('',(38.4,-27.5,20.));
#947 = DIRECTION('',(0.,-1.,0.));
#948 = DIRECTION('',(1.,0.,0.));
#949 = ORIENTED_EDGE('',*,*,#950,.F.);
#950 = EDGE_CURVE('',#951,#942,#953,.T.);
#951 = VERTEX_POINT('',#952);
#952 = CARTESIAN_POINT('',(39.5,-27.5,10.));
#953 = LINE('',#954,#955);
#954 = CARTESIAN_POINT('',(39.5,-27.5,0.));
#955 = VECTOR('',#956,1.);
#956 = DIRECTION('',(0.,0.,1.));
#957 = ORIENTED_EDGE('',*,*,#958,.F.);
#958 = EDGE_CURVE('',#959,#951,#961,.T.);
#959 = VERTEX_POINT('',#960);
#960 = CARTESIAN_POINT('',(-39.5,-27.5,10.));
#961 = LINE('',#962,#963);
#962 = CARTESIAN_POINT('',(-39.5,-27.5,10.));
#963 = VECTOR('',#964,1.);
#964 = DIRECTION('',(1.,0.,0.));
#965 = ORIENTED_EDGE('',*,*,#966,.T.);
#966 = EDGE_CURVE('',#959,#967,#969,.T.);
#967 = VERTEX_POINT('',#968);
#968 = CARTESIAN_POINT('',(-39.5,-27.5,16.677350454833));
#969 = LINE('',#970,#971);
#970 = CARTESIAN_POINT('',(-39.5,-27.5,0.));
#971 = VECTOR('',#972,1.);
#972 = DIRECTION('',(0.,0.,1.));
#973 = ORIENTED_EDGE('',*,*,#974,.T.);
#974 = EDGE_CURVE('',#967,#975,#977,.T.);
#975 = VERTEX_POINT('',#976);
#976 = CARTESIAN_POINT('',(-34.9,-27.5,20.));
#977 = CIRCLE('',#978,3.5);
#978 = AXIS2_PLACEMENT_3D('',#979,#980,#981);
#979 = CARTESIAN_POINT('',(-38.4,-27.5,20.));
#980 = DIRECTION('',(0.,-1.,0.));
#981 = DIRECTION('',(1.,0.,0.));
#982 = ORIENTED_EDGE('',*,*,#983,.T.);
#983 = EDGE_CURVE('',#975,#984,#986,.T.);
#984 = VERTEX_POINT('',#985);
#985 = CARTESIAN_POINT('',(-39.5,-27.5,23.322649545167));
#986 = CIRCLE('',#987,3.5);
#987 = AXIS2_PLACEMENT_3D('',#988,#989,#990);
#988 = CARTESIAN_POINT('',(-38.4,-27.5,20.));
#989 = DIRECTION('',(0.,-1.,0.));
#990 = DIRECTION('',(1.,0.,0.));
#991 = ORIENTED_EDGE('',*,*,#992,.T.);
#992 = EDGE_CURVE('',#984,#993,#995,.T.);
#993 = VERTEX_POINT('',#994);
#994 = CARTESIAN_POINT('',(-39.5,-27.5,29.322649545167));
#995 = LINE('',#996,#997);
#996 = CARTESIAN_POINT('',(-39.5,-27.5,0.));
#997 = VECTOR('',#998,1.);
#998 = DIRECTION('',(0.,0.,1.));
#999 = ORIENTED_EDGE('',*,*,#1000,.T.);
#1000 = EDGE_CURVE('',#993,#643,#1001,.T.);
#1001 = LINE('',#1002,#1003);
#1002 = CARTESIAN_POINT('',(-39.5,-27.5,29.322649545167));
#1003 = VECTOR('',#1004,1.);
#1004 = DIRECTION('',(-1.,-0.,-0.));
#1005 = ORIENTED_EDGE('',*,*,#651,.F.);
#1006 = FACE_BOUND('',#1007,.T.);
#1007 = EDGE_LOOP('',(#1008));
#1008 = ORIENTED_EDGE('',*,*,#1009,.F.);
#1009 = EDGE_CURVE('',#1010,#1010,#1012,.T.);
#1010 = VERTEX_POINT('',#1011);
#1011 = CARTESIAN_POINT('',(-37.1,-27.5,94.9));
#1012 = CIRCLE('',#1013,1.3);
#1013 = AXIS2_PLACEMENT_3D('',#1014,#1015,#1016);
#1014 = CARTESIAN_POINT('',(-38.4,-27.5,94.9));
#1015 = DIRECTION('',(0.,-1.,0.));
#1016 = DIRECTION('',(1.,0.,0.));
#1017 = FACE_BOUND('',#1018,.T.);
#1018 = EDGE_LOOP('',(#1019));
#1019 = ORIENTED_EDGE('',*,*,#1020,.F.);
#1020 = EDGE_CURVE('',#1021,#1021,#1023,.T.);
#1021 = VERTEX_POINT('',#1022);
#1022 = CARTESIAN_POINT('',(-37.1,-27.5,20.));
#1023 = CIRCLE('',#1024,1.3);
#1024 = AXIS2_PLACEMENT_3D('',#1025,#1026,#1027);
#1025 = CARTESIAN_POINT('',(-38.4,-27.5,20.));
#1026 = DIRECTION('',(0.,-1.,0.));
#1027 = DIRECTION('',(1.,0.,0.));
#1028 = FACE_BOUND('',#1029,.T.);
#1029 = EDGE_LOOP('',(#1030));
#1030 = ORIENTED_EDGE('',*,*,#1031,.F.);
#1031 = EDGE_CURVE('',#1032,#1032,#1034,.T.);
#1032 = VERTEX_POINT('',#1033);
#1033 = CARTESIAN_POINT('',(1.3,-27.5,5.));
#1034 = CIRCLE('',#1035,1.3);
#1035 = AXIS2_PLACEMENT_3D('',#1036,#1037,#1038);
#1036 = CARTESIAN_POINT('',(0.,-27.5,5.));
#1037 = DIRECTION('',(0.,-1.,0.));
#1038 = DIRECTION('',(1.,0.,0.));
#1039 = FACE_BOUND('',#1040,.T.);
#1040 = EDGE_LOOP('',(#1041));
#1041 = ORIENTED_EDGE('',*,*,#1042,.F.);
#1042 = EDGE_CURVE('',#1043,#1043,#1045,.T.);
#1043 = VERTEX_POINT('',#1044);
#1044 = CARTESIAN_POINT('',(39.7,-27.5,94.9));
#1045 = CIRCLE('',#1046,1.3);
#1046 = AXIS2_PLACEMENT_3D('',#1047,#1048,#1049);
#1047 = CARTESIAN_POINT('',(38.4,-27.5,94.9));
#1048 = DIRECTION('',(0.,-1.,0.));
#1049 = DIRECTION('',(1.,0.,0.));
#1050 = FACE_BOUND('',#1051,.T.);
#1051 = EDGE_LOOP('',(#1052));
#1052 = ORIENTED_EDGE('',*,*,#1053,.F.);
#1053 = EDGE_CURVE('',#1054,#1054,#1056,.T.);
#1054 = VERTEX_POINT('',#1055);
#1055 = CARTESIAN_POINT('',(39.7,-27.5,20.));
#1056 = CIRCLE('',#1057,1.3);
#1057 = AXIS2_PLACEMENT_3D('',#1058,#1059,#1060);
#1058 = CARTESIAN_POINT('',(38.4,-27.5,20.));
#1059 = DIRECTION('',(0.,-1.,0.));
#1060 = DIRECTION('',(1.,0.,0.));
#1061 = PLANE('',#1062);
#1062 = AXIS2_PLACEMENT_3D('',#1063,#1064,#1065);
#1063 = CARTESIAN_POINT('',(1.25E-15,-27.5,49.2));
#1064 = DIRECTION('',(-0.,-1.,-0.));
#1065 = DIRECTION('',(0.,0.,-1.));
#1066 = ADVANCED_FACE('',(#1067),#1079,.F.);
#1067 = FACE_BOUND('',#1068,.F.);
#1068 = EDGE_LOOP('',(#1069,#1070,#1071,#1072));
#1069 = ORIENTED_EDGE('',*,*,#1000,.T.);
#1070 = ORIENTED_EDGE('',*,*,#642,.T.);
#1071 = ORIENTED_EDGE('',*,*,#754,.F.);
#1072 = ORIENTED_EDGE('',*,*,#1073,.F.);
#1073 = EDGE_CURVE('',#993,#755,#1074,.T.);
#1074 = CIRCLE('',#1075,4.);
#1075 = AXIS2_PLACEMENT_3D('',#1076,#1077,#1078);
#1076 = CARTESIAN_POINT('',(-39.5,-27.5,33.322649545167));
#1077 = DIRECTION('',(1.,0.,0.));
#1078 = DIRECTION('',(0.,1.,0.));
#1079 = CYLINDRICAL_SURFACE('',#1080,4.);
#1080 = AXIS2_PLACEMENT_3D('',#1081,#1082,#1083);
#1081 = CARTESIAN_POINT('',(-39.5,-27.5,33.322649545167));
#1082 = DIRECTION('',(1.,0.,0.));
#1083 = DIRECTION('',(0.,1.,0.));
#1084 = ADVANCED_FACE('',(#1085,#1105),#1139,.T.);
#1085 = FACE_BOUND('',#1086,.T.);
#1086 = EDGE_LOOP('',(#1087,#1088,#1089,#1090,#1091,#1099));
#1087 = ORIENTED_EDGE('',*,*,#618,.T.);
#1088 = ORIENTED_EDGE('',*,*,#746,.T.);
#1089 = ORIENTED_EDGE('',*,*,#738,.T.);
#1090 = ORIENTED_EDGE('',*,*,#730,.T.);
#1091 = ORIENTED_EDGE('',*,*,#1092,.T.);
#1092 = EDGE_CURVE('',#723,#1093,#1095,.T.);
#1093 = VERTEX_POINT('',#1094);
#1094 = CARTESIAN_POINT('',(41.9,29.9,98.4));
#1095 = LINE('',#1096,#1097);
#1096 = CARTESIAN_POINT('',(41.9,-29.9,98.4));
#1097 = VECTOR('',#1098,1.);
#1098 = DIRECTION('',(0.,1.,0.));
#1099 = ORIENTED_EDGE('',*,*,#1100,.T.);
#1100 = EDGE_CURVE('',#1093,#611,#1101,.T.);
#1101 = LINE('',#1102,#1103);
#1102 = CARTESIAN_POINT('',(41.9,29.9,98.4));
#1103 = VECTOR('',#1104,1.);
#1104 = DIRECTION('',(-1.,0.,0.));
#1105 = FACE_BOUND('',#1106,.T.);
#1106 = EDGE_LOOP('',(#1107,#1117,#1125,#1133));
#1107 = ORIENTED_EDGE('',*,*,#1108,.F.);
#1108 = EDGE_CURVE('',#1109,#1111,#1113,.T.);
#1109 = VERTEX_POINT('',#1110);
#1110 = CARTESIAN_POINT('',(-26.851767,-8.25,98.4));
#1111 = VERTEX_POINT('',#1112);
#1112 = CARTESIAN_POINT('',(-18.351767,-8.25,98.4));
#1113 = LINE('',#1114,#1115);
#1114 = CARTESIAN_POINT('',(-26.851767,-8.25,98.4));
#1115 = VECTOR('',#1116,1.);
#1116 = DIRECTION('',(1.,0.,0.));
#1117 = ORIENTED_EDGE('',*,*,#1118,.F.);
#1118 = EDGE_CURVE('',#1119,#1109,#1121,.T.);
#1119 = VERTEX_POINT('',#1120);
#1120 = CARTESIAN_POINT('',(-26.851767,8.25,98.4));
#1121 = LINE('',#1122,#1123);
#1122 = CARTESIAN_POINT('',(-26.851767,8.25,98.4));
#1123 = VECTOR('',#1124,1.);
#1124 = DIRECTION('',(0.,-1.,0.));
#1125 = ORIENTED_EDGE('',*,*,#1126,.F.);
#1126 = EDGE_CURVE('',#1127,#1119,#1129,.T.);
#1127 = VERTEX_POINT('',#1128);
#1128 = CARTESIAN_POINT('',(-18.351767,8.25,98.4));
#1129 = LINE('',#1130,#1131);
#1130 = CARTESIAN_POINT('',(-18.351767,8.25,98.4));
#1131 = VECTOR('',#1132,1.);
#1132 = DIRECTION('',(-1.,0.,0.));
#1133 = ORIENTED_EDGE('',*,*,#1134,.F.);
#1134 = EDGE_CURVE('',#1111,#1127,#1135,.T.);
#1135 = LINE('',#1136,#1137);
#1136 = CARTESIAN_POINT('',(-18.351767,-8.25,98.4));
#1137 = VECTOR('',#1138,1.);
#1138 = DIRECTION('',(0.,1.,0.));
#1139 = PLANE('',#1140);
#1140 = AXIS2_PLACEMENT_3D('',#1141,#1142,#1143);
#1141 = CARTESIAN_POINT('',(-1.61E-15,1.2,98.4));
#1142 = DIRECTION('',(0.,0.,1.));
#1143 = DIRECTION('',(1.,0.,0.));
#1144 = ADVANCED_FACE('',(#1145),#1156,.F.);
#1145 = FACE_BOUND('',#1146,.F.);
#1146 = EDGE_LOOP('',(#1147,#1153,#1154,#1155));
#1147 = ORIENTED_EDGE('',*,*,#1148,.T.);
#1148 = EDGE_CURVE('',#675,#1093,#1149,.T.);
#1149 = LINE('',#1150,#1151);
#1150 = CARTESIAN_POINT('',(41.9,29.9,0.));
#1151 = VECTOR('',#1152,1.);
#1152 = DIRECTION('',(0.,0.,1.));
#1153 = ORIENTED_EDGE('',*,*,#1100,.T.);
#1154 = ORIENTED_EDGE('',*,*,#610,.F.);
#1155 = ORIENTED_EDGE('',*,*,#674,.F.);
#1156 = PLANE('',#1157);
#1157 = AXIS2_PLACEMENT_3D('',#1158,#1159,#1160);
#1158 = CARTESIAN_POINT('',(41.9,29.9,0.));
#1159 = DIRECTION('',(0.,-1.,0.));
#1160 = DIRECTION('',(-1.,0.,0.));
#1161 = ADVANCED_FACE('',(#1162),#1170,.F.);
#1162 = FACE_BOUND('',#1163,.F.);
#1163 = EDGE_LOOP('',(#1164,#1165,#1166,#1167,#1168,#1169));
#1164 = ORIENTED_EDGE('',*,*,#682,.F.);
#1165 = ORIENTED_EDGE('',*,*,#706,.T.);
#1166 = ORIENTED_EDGE('',*,*,#714,.T.);
#1167 = ORIENTED_EDGE('',*,*,#722,.T.);
#1168 = ORIENTED_EDGE('',*,*,#1092,.T.);
#1169 = ORIENTED_EDGE('',*,*,#1148,.F.);
#1170 = PLANE('',#1171);
#1171 = AXIS2_PLACEMENT_3D('',#1172,#1173,#1174);
#1172 = CARTESIAN_POINT('',(41.9,-29.9,0.));
#1173 = DIRECTION('',(-1.,0.,0.));
#1174 = DIRECTION('',(0.,1.,0.));
#1175 = ADVANCED_FACE('',(#1176),#1226,.T.);
#1176 = FACE_BOUND('',#1177,.T.);
#1177 = EDGE_LOOP('',(#1178,#1186,#1194,#1200,#1201,#1202,#1203,#1211,
    #1219,#1225));
#1178 = ORIENTED_EDGE('',*,*,#1179,.F.);
#1179 = EDGE_CURVE('',#1180,#959,#1182,.T.);
#1180 = VERTEX_POINT('',#1181);
#1181 = CARTESIAN_POINT('',(-39.5,27.5,10.));
#1182 = LINE('',#1183,#1184);
#1183 = CARTESIAN_POINT('',(-39.5,27.5,10.));
#1184 = VECTOR('',#1185,1.);
#1185 = DIRECTION('',(0.,-1.,2.2E-16));
#1186 = ORIENTED_EDGE('',*,*,#1187,.T.);
#1187 = EDGE_CURVE('',#1180,#1188,#1190,.T.);
#1188 = VERTEX_POINT('',#1189);
#1189 = CARTESIAN_POINT('',(-39.5,27.5,66.));
#1190 = LINE('',#1191,#1192);
#1191 = CARTESIAN_POINT('',(-39.5,27.5,0.));
#1192 = VECTOR('',#1193,1.);
#1193 = DIRECTION('',(0.,0.,1.));
#1194 = ORIENTED_EDGE('',*,*,#1195,.T.);
#1195 = EDGE_CURVE('',#1188,#763,#1196,.T.);
#1196 = LINE('',#1197,#1198);
#1197 = CARTESIAN_POINT('',(-39.5,27.5,66.));
#1198 = VECTOR('',#1199,1.);
#1199 = DIRECTION('',(0.,-1.,2.2E-16));
#1200 = ORIENTED_EDGE('',*,*,#762,.F.);
#1201 = ORIENTED_EDGE('',*,*,#1073,.F.);
#1202 = ORIENTED_EDGE('',*,*,#992,.F.);
#1203 = ORIENTED_EDGE('',*,*,#1204,.F.);
#1204 = EDGE_CURVE('',#1205,#984,#1207,.T.);
#1205 = VERTEX_POINT('',#1206);
#1206 = CARTESIAN_POINT('',(-39.5,-19.5,23.322649545167));
#1207 = LINE('',#1208,#1209);
#1208 = CARTESIAN_POINT('',(-39.5,-27.5,23.322649545167));
#1209 = VECTOR('',#1210,1.);
#1210 = DIRECTION('',(0.,-1.,2.2E-16));
#1211 = ORIENTED_EDGE('',*,*,#1212,.F.);
#1212 = EDGE_CURVE('',#1213,#1205,#1215,.T.);
#1213 = VERTEX_POINT('',#1214);
#1214 = CARTESIAN_POINT('',(-39.5,-19.5,16.677350454833));
#1215 = LINE('',#1216,#1217);
#1216 = CARTESIAN_POINT('',(-39.5,-19.5,10.));
#1217 = VECTOR('',#1218,1.);
#1218 = DIRECTION('',(0.,0.,1.));
#1219 = ORIENTED_EDGE('',*,*,#1220,.T.);
#1220 = EDGE_CURVE('',#1213,#967,#1221,.T.);
#1221 = LINE('',#1222,#1223);
#1222 = CARTESIAN_POINT('',(-39.5,-27.5,16.677350454833));
#1223 = VECTOR('',#1224,1.);
#1224 = DIRECTION('',(0.,-1.,2.2E-16));
#1225 = ORIENTED_EDGE('',*,*,#966,.F.);
#1226 = PLANE('',#1227);
#1227 = AXIS2_PLACEMENT_3D('',#1228,#1229,#1230);
#1228 = CARTESIAN_POINT('',(-39.5,27.5,0.));
#1229 = DIRECTION('',(1.,0.,0.));
#1230 = DIRECTION('',(0.,-1.,0.));
#1231 = ADVANCED_FACE('',(#1232),#1254,.T.);
#1232 = FACE_BOUND('',#1233,.T.);
#1233 = EDGE_LOOP('',(#1234,#1243,#1244,#1245,#1246,#1247));
#1234 = ORIENTED_EDGE('',*,*,#1235,.T.);
#1235 = EDGE_CURVE('',#1236,#1205,#1238,.T.);
#1236 = VERTEX_POINT('',#1237);
#1237 = CARTESIAN_POINT('',(-34.9,-19.5,20.));
#1238 = CIRCLE('',#1239,3.5);
#1239 = AXIS2_PLACEMENT_3D('',#1240,#1241,#1242);
#1240 = CARTESIAN_POINT('',(-38.4,-19.5,20.));
#1241 = DIRECTION('',(0.,-1.,0.));
#1242 = DIRECTION('',(1.,0.,0.));
#1243 = ORIENTED_EDGE('',*,*,#1204,.T.);
#1244 = ORIENTED_EDGE('',*,*,#983,.F.);
#1245 = ORIENTED_EDGE('',*,*,#974,.F.);
#1246 = ORIENTED_EDGE('',*,*,#1220,.F.);
#1247 = ORIENTED_EDGE('',*,*,#1248,.T.);
#1248 = EDGE_CURVE('',#1213,#1236,#1249,.T.);
#1249 = CIRCLE('',#1250,3.5);
#1250 = AXIS2_PLACEMENT_3D('',#1251,#1252,#1253);
#1251 = CARTESIAN_POINT('',(-38.4,-19.5,20.));
#1252 = DIRECTION('',(0.,-1.,0.));
#1253 = DIRECTION('',(1.,0.,0.));
#1254 = CYLINDRICAL_SURFACE('',#1255,3.5);
#1255 = AXIS2_PLACEMENT_3D('',#1256,#1257,#1258);
#1256 = CARTESIAN_POINT('',(-38.4,-27.5,20.));
#1257 = DIRECTION('',(0.,-1.,2.2E-16));
#1258 = DIRECTION('',(1.,0.,0.));
#1259 = ADVANCED_FACE('',(#1260,#1278,#1289),#1300,.T.);
#1260 = FACE_BOUND('',#1261,.T.);
#1261 = EDGE_LOOP('',(#1262,#1263,#1264,#1272));
#1262 = ORIENTED_EDGE('',*,*,#1179,.T.);
#1263 = ORIENTED_EDGE('',*,*,#958,.T.);
#1264 = ORIENTED_EDGE('',*,*,#1265,.F.);
#1265 = EDGE_CURVE('',#1266,#951,#1268,.T.);
#1266 = VERTEX_POINT('',#1267);
#1267 = CARTESIAN_POINT('',(39.5,27.5,10.));
#1268 = LINE('',#1269,#1270);
#1269 = CARTESIAN_POINT('',(39.5,27.5,10.));
#1270 = VECTOR('',#1271,1.);
#1271 = DIRECTION('',(0.,-1.,2.2E-16));
#1272 = ORIENTED_EDGE('',*,*,#1273,.F.);
#1273 = EDGE_CURVE('',#1180,#1266,#1274,.T.);
#1274 = LINE('',#1275,#1276);
#1275 = CARTESIAN_POINT('',(-39.5,27.5,10.));
#1276 = VECTOR('',#1277,1.);
#1277 = DIRECTION('',(1.,0.,0.));
#1278 = FACE_BOUND('',#1279,.T.);
#1279 = EDGE_LOOP('',(#1280));
#1280 = ORIENTED_EDGE('',*,*,#1281,.F.);
#1281 = EDGE_CURVE('',#1282,#1282,#1284,.T.);
#1282 = VERTEX_POINT('',#1283);
#1283 = CARTESIAN_POINT('',(-30.95,2.E-15,10.));
#1284 = CIRCLE('',#1285,1.3);
#1285 = AXIS2_PLACEMENT_3D('',#1286,#1287,#1288);
#1286 = CARTESIAN_POINT('',(-32.25,2.E-15,10.));
#1287 = DIRECTION('',(0.,0.,1.));
#1288 = DIRECTION('',(1.,0.,0.));
#1289 = FACE_BOUND('',#1290,.T.);
#1290 = EDGE_LOOP('',(#1291));
#1291 = ORIENTED_EDGE('',*,*,#1292,.F.);
#1292 = EDGE_CURVE('',#1293,#1293,#1295,.T.);
#1293 = VERTEX_POINT('',#1294);
#1294 = CARTESIAN_POINT('',(33.55,2.E-15,10.));
#1295 = CIRCLE('',#1296,1.3);
#1296 = AXIS2_PLACEMENT_3D('',#1297,#1298,#1299);
#1297 = CARTESIAN_POINT('',(32.25,2.E-15,10.));
#1298 = DIRECTION('',(0.,0.,1.));
#1299 = DIRECTION('',(1.,0.,0.));
#1300 = PLANE('',#1301);
#1301 = AXIS2_PLACEMENT_3D('',#1302,#1303,#1304);
#1302 = CARTESIAN_POINT('',(-39.5,27.5,10.));
#1303 = DIRECTION('',(0.,2.2E-16,1.));
#1304 = DIRECTION('',(1.,0.,0.));
#1305 = ADVANCED_FACE('',(#1306),#1347,.T.);
#1306 = FACE_BOUND('',#1307,.T.);
#1307 = EDGE_LOOP('',(#1308,#1316,#1317,#1318,#1326,#1334,#1340,#1341));
#1308 = ORIENTED_EDGE('',*,*,#1309,.F.);
#1309 = EDGE_CURVE('',#1266,#1310,#1312,.T.);
#1310 = VERTEX_POINT('',#1311);
#1311 = CARTESIAN_POINT('',(39.5,27.5,66.));
#1312 = LINE('',#1313,#1314);
#1313 = CARTESIAN_POINT('',(39.5,27.5,0.));
#1314 = VECTOR('',#1315,1.);
#1315 = DIRECTION('',(0.,0.,1.));
#1316 = ORIENTED_EDGE('',*,*,#1265,.T.);
#1317 = ORIENTED_EDGE('',*,*,#950,.T.);
#1318 = ORIENTED_EDGE('',*,*,#1319,.F.);
#1319 = EDGE_CURVE('',#1320,#942,#1322,.T.);
#1320 = VERTEX_POINT('',#1321);
#1321 = CARTESIAN_POINT('',(39.5,-19.5,16.677350454833));
#1322 = LINE('',#1323,#1324);
#1323 = CARTESIAN_POINT('',(39.5,-27.5,16.677350454833));
#1324 = VECTOR('',#1325,1.);
#1325 = DIRECTION('',(0.,-1.,2.2E-16));
#1326 = ORIENTED_EDGE('',*,*,#1327,.F.);
#1327 = EDGE_CURVE('',#1328,#1320,#1330,.T.);
#1328 = VERTEX_POINT('',#1329);
#1329 = CARTESIAN_POINT('',(39.5,-19.5,23.322649545167));
#1330 = LINE('',#1331,#1332);
#1331 = CARTESIAN_POINT('',(39.5,-19.5,10.));
#1332 = VECTOR('',#1333,1.);
#1333 = DIRECTION('',(0.,0.,-1.));
#1334 = ORIENTED_EDGE('',*,*,#1335,.T.);
#1335 = EDGE_CURVE('',#1328,#934,#1336,.T.);
#1336 = LINE('',#1337,#1338);
#1337 = CARTESIAN_POINT('',(39.5,-27.5,23.322649545167));
#1338 = VECTOR('',#1339,1.);
#1339 = DIRECTION('',(0.,-1.,2.2E-16));
#1340 = ORIENTED_EDGE('',*,*,#933,.T.);
#1341 = ORIENTED_EDGE('',*,*,#1342,.F.);
#1342 = EDGE_CURVE('',#1310,#926,#1343,.T.);
#1343 = LINE('',#1344,#1345);
#1344 = CARTESIAN_POINT('',(39.5,27.5,66.));
#1345 = VECTOR('',#1346,1.);
#1346 = DIRECTION('',(0.,-1.,2.2E-16));
#1347 = PLANE('',#1348);
#1348 = AXIS2_PLACEMENT_3D('',#1349,#1350,#1351);
#1349 = CARTESIAN_POINT('',(39.5,-27.5,0.));
#1350 = DIRECTION('',(-1.,0.,0.));
#1351 = DIRECTION('',(0.,1.,0.));
#1352 = ADVANCED_FACE('',(#1353),#1365,.T.);
#1353 = FACE_BOUND('',#1354,.T.);
#1354 = EDGE_LOOP('',(#1355,#1356,#1357,#1364));
#1355 = ORIENTED_EDGE('',*,*,#941,.F.);
#1356 = ORIENTED_EDGE('',*,*,#1335,.F.);
#1357 = ORIENTED_EDGE('',*,*,#1358,.T.);
#1358 = EDGE_CURVE('',#1328,#1320,#1359,.T.);
#1359 = CIRCLE('',#1360,3.5);
#1360 = AXIS2_PLACEMENT_3D('',#1361,#1362,#1363);
#1361 = CARTESIAN_POINT('',(38.4,-19.5,20.));
#1362 = DIRECTION('',(0.,-1.,0.));
#1363 = DIRECTION('',(1.,0.,0.));
#1364 = ORIENTED_EDGE('',*,*,#1319,.T.);
#1365 = CYLINDRICAL_SURFACE('',#1366,3.5);
#1366 = AXIS2_PLACEMENT_3D('',#1367,#1368,#1369);
#1367 = CARTESIAN_POINT('',(38.4,-27.5,20.));
#1368 = DIRECTION('',(0.,-1.,2.2E-16));
#1369 = DIRECTION('',(1.,0.,0.));
#1370 = ADVANCED_FACE('',(#1371),#1390,.T.);
#1371 = FACE_BOUND('',#1372,.T.);
#1372 = EDGE_LOOP('',(#1373,#1379,#1380,#1381,#1388,#1389));
#1373 = ORIENTED_EDGE('',*,*,#1374,.F.);
#1374 = EDGE_CURVE('',#1310,#1188,#1375,.T.);
#1375 = LINE('',#1376,#1377);
#1376 = CARTESIAN_POINT('',(39.5,27.5,66.));
#1377 = VECTOR('',#1378,1.);
#1378 = DIRECTION('',(-1.,0.,0.));
#1379 = ORIENTED_EDGE('',*,*,#1342,.T.);
#1380 = ORIENTED_EDGE('',*,*,#925,.T.);
#1381 = ORIENTED_EDGE('',*,*,#1382,.T.);
#1382 = EDGE_CURVE('',#918,#771,#1383,.T.);
#1383 = CIRCLE('',#1384,2.5);
#1384 = AXIS2_PLACEMENT_3D('',#1385,#1386,#1387);
#1385 = CARTESIAN_POINT('',(30.,-27.5,66.));
#1386 = DIRECTION('',(0.,0.,1.));
#1387 = DIRECTION('',(1.,0.,0.));
#1388 = ORIENTED_EDGE('',*,*,#770,.T.);
#1389 = ORIENTED_EDGE('',*,*,#1195,.F.);
#1390 = PLANE('',#1391);
#1391 = AXIS2_PLACEMENT_3D('',#1392,#1393,#1394);
#1392 = CARTESIAN_POINT('',(39.5,27.5,66.));
#1393 = DIRECTION('',(-0.,-2.2E-16,-1.));
#1394 = DIRECTION('',(-1.,0.,0.));
#1395 = ADVANCED_FACE('',(#1396),#1408,.F.);
#1396 = FACE_BOUND('',#1397,.F.);
#1397 = EDGE_LOOP('',(#1398,#1399,#1400,#1401));
#1398 = ORIENTED_EDGE('',*,*,#917,.T.);
#1399 = ORIENTED_EDGE('',*,*,#1382,.T.);
#1400 = ORIENTED_EDGE('',*,*,#778,.F.);
#1401 = ORIENTED_EDGE('',*,*,#1402,.F.);
#1402 = EDGE_CURVE('',#910,#779,#1403,.T.);
#1403 = CIRCLE('',#1404,2.5);
#1404 = AXIS2_PLACEMENT_3D('',#1405,#1406,#1407);
#1405 = CARTESIAN_POINT('',(30.,-27.5,68.));
#1406 = DIRECTION('',(0.,0.,1.));
#1407 = DIRECTION('',(1.,0.,0.));
#1408 = CYLINDRICAL_SURFACE('',#1409,2.5);
#1409 = AXIS2_PLACEMENT_3D('',#1410,#1411,#1412);
#1410 = CARTESIAN_POINT('',(30.,-27.5,68.));
#1411 = DIRECTION('',(0.,0.,1.));
#1412 = DIRECTION('',(1.,0.,0.));
#1413 = ADVANCED_FACE('',(#1414),#1441,.T.);
#1414 = FACE_BOUND('',#1415,.T.);
#1415 = EDGE_LOOP('',(#1416,#1424,#1432,#1438,#1439,#1440));
#1416 = ORIENTED_EDGE('',*,*,#1417,.F.);
#1417 = EDGE_CURVE('',#1418,#902,#1420,.T.);
#1418 = VERTEX_POINT('',#1419);
#1419 = CARTESIAN_POINT('',(35.5,27.5,68.));
#1420 = LINE('',#1421,#1422);
#1421 = CARTESIAN_POINT('',(35.5,27.5,68.));
#1422 = VECTOR('',#1423,1.);
#1423 = DIRECTION('',(0.,-1.,2.6E-16));
#1424 = ORIENTED_EDGE('',*,*,#1425,.T.);
#1425 = EDGE_CURVE('',#1418,#1426,#1428,.T.);
#1426 = VERTEX_POINT('',#1427);
#1427 = CARTESIAN_POINT('',(-35.5,27.5,68.));
#1428 = LINE('',#1429,#1430);
#1429 = CARTESIAN_POINT('',(0.,27.5,68.));
#1430 = VECTOR('',#1431,1.);
#1431 = DIRECTION('',(-1.,0.,0.));
#1432 = ORIENTED_EDGE('',*,*,#1433,.T.);
#1433 = EDGE_CURVE('',#1426,#787,#1434,.T.);
#1434 = LINE('',#1435,#1436);
#1435 = CARTESIAN_POINT('',(-35.5,27.5,68.));
#1436 = VECTOR('',#1437,1.);
#1437 = DIRECTION('',(0.,-1.,2.6E-16));
#1438 = ORIENTED_EDGE('',*,*,#786,.T.);
#1439 = ORIENTED_EDGE('',*,*,#1402,.F.);
#1440 = ORIENTED_EDGE('',*,*,#909,.T.);
#1441 = PLANE('',#1442);
#1442 = AXIS2_PLACEMENT_3D('',#1443,#1444,#1445);
#1443 = CARTESIAN_POINT('',(0.,1.357E-14,68.));
#1444 = DIRECTION('',(0.,2.6E-16,1.));
#1445 = DIRECTION('',(0.,1.,-2.6E-16));
#1446 = ADVANCED_FACE('',(#1447),#1465,.F.);
#1447 = FACE_BOUND('',#1448,.F.);
#1448 = EDGE_LOOP('',(#1449,#1457,#1463,#1464));
#1449 = ORIENTED_EDGE('',*,*,#1450,.T.);
#1450 = EDGE_CURVE('',#1418,#1451,#1453,.T.);
#1451 = VERTEX_POINT('',#1452);
#1452 = CARTESIAN_POINT('',(35.5,27.5,73.));
#1453 = LINE('',#1454,#1455);
#1454 = CARTESIAN_POINT('',(35.5,27.5,68.));
#1455 = VECTOR('',#1456,1.);
#1456 = DIRECTION('',(0.,0.,1.));
#1457 = ORIENTED_EDGE('',*,*,#1458,.T.);
#1458 = EDGE_CURVE('',#1451,#894,#1459,.T.);
#1459 = LINE('',#1460,#1461);
#1460 = CARTESIAN_POINT('',(35.5,27.5,73.));
#1461 = VECTOR('',#1462,1.);
#1462 = DIRECTION('',(0.,-1.,0.));
#1463 = ORIENTED_EDGE('',*,*,#901,.F.);
#1464 = ORIENTED_EDGE('',*,*,#1417,.F.);
#1465 = PLANE('',#1466);
#1466 = AXIS2_PLACEMENT_3D('',#1467,#1468,#1469);
#1467 = CARTESIAN_POINT('',(35.5,8.53E-15,70.5));
#1468 = DIRECTION('',(1.,0.,0.));
#1469 = DIRECTION('',(0.,0.,1.));
#1470 = ADVANCED_FACE('',(#1471),#1489,.F.);
#1471 = FACE_BOUND('',#1472,.F.);
#1472 = EDGE_LOOP('',(#1473,#1474,#1482,#1488));
#1473 = ORIENTED_EDGE('',*,*,#1458,.F.);
#1474 = ORIENTED_EDGE('',*,*,#1475,.T.);
#1475 = EDGE_CURVE('',#1451,#1476,#1478,.T.);
#1476 = VERTEX_POINT('',#1477);
#1477 = CARTESIAN_POINT('',(31.5,27.5,73.));
#1478 = LINE('',#1479,#1480);
#1479 = CARTESIAN_POINT('',(39.5,27.5,73.));
#1480 = VECTOR('',#1481,1.);
#1481 = DIRECTION('',(-1.,0.,0.));
#1482 = ORIENTED_EDGE('',*,*,#1483,.T.);
#1483 = EDGE_CURVE('',#1476,#886,#1484,.T.);
#1484 = LINE('',#1485,#1486);
#1485 = CARTESIAN_POINT('',(31.5,27.5,73.));
#1486 = VECTOR('',#1487,1.);
#1487 = DIRECTION('',(0.,-1.,0.));
#1488 = ORIENTED_EDGE('',*,*,#893,.F.);
#1489 = PLANE('',#1490);
#1490 = AXIS2_PLACEMENT_3D('',#1491,#1492,#1493);
#1491 = CARTESIAN_POINT('',(39.5,27.5,73.));
#1492 = DIRECTION('',(0.,0.,1.));
#1493 = DIRECTION('',(0.,-1.,0.));
#1494 = ADVANCED_FACE('',(#1495),#1513,.F.);
#1495 = FACE_BOUND('',#1496,.T.);
#1496 = EDGE_LOOP('',(#1497,#1505,#1506,#1507));
#1497 = ORIENTED_EDGE('',*,*,#1498,.F.);
#1498 = EDGE_CURVE('',#1476,#1499,#1501,.T.);
#1499 = VERTEX_POINT('',#1500);
#1500 = CARTESIAN_POINT('',(31.5,27.5,75.));
#1501 = LINE('',#1502,#1503);
#1502 = CARTESIAN_POINT('',(31.5,27.5,73.));
#1503 = VECTOR('',#1504,1.);
#1504 = DIRECTION('',(0.,0.,1.));
#1505 = ORIENTED_EDGE('',*,*,#1483,.T.);
#1506 = ORIENTED_EDGE('',*,*,#885,.T.);
#1507 = ORIENTED_EDGE('',*,*,#1508,.F.);
#1508 = EDGE_CURVE('',#1499,#878,#1509,.T.);
#1509 = LINE('',#1510,#1511);
#1510 = CARTESIAN_POINT('',(31.5,27.5,75.));
#1511 = VECTOR('',#1512,1.);
#1512 = DIRECTION('',(0.,-1.,0.));
#1513 = PLANE('',#1514);
#1514 = AXIS2_PLACEMENT_3D('',#1515,#1516,#1517);
#1515 = CARTESIAN_POINT('',(31.5,0.,74.));
#1516 = DIRECTION('',(1.,0.,0.));
#1517 = DIRECTION('',(0.,0.,1.));
#1518 = ADVANCED_FACE('',(#1519),#1537,.T.);
#1519 = FACE_BOUND('',#1520,.T.);
#1520 = EDGE_LOOP('',(#1521,#1529,#1530,#1531));
#1521 = ORIENTED_EDGE('',*,*,#1522,.T.);
#1522 = EDGE_CURVE('',#1523,#1499,#1525,.T.);
#1523 = VERTEX_POINT('',#1524);
#1524 = CARTESIAN_POINT('',(39.5,27.5,75.));
#1525 = LINE('',#1526,#1527);
#1526 = CARTESIAN_POINT('',(39.5,27.5,75.));
#1527 = VECTOR('',#1528,1.);
#1528 = DIRECTION('',(-1.,0.,0.));
#1529 = ORIENTED_EDGE('',*,*,#1508,.T.);
#1530 = ORIENTED_EDGE('',*,*,#877,.F.);
#1531 = ORIENTED_EDGE('',*,*,#1532,.F.);
#1532 = EDGE_CURVE('',#1523,#870,#1533,.T.);
#1533 = LINE('',#1534,#1535);
#1534 = CARTESIAN_POINT('',(39.5,27.5,75.));
#1535 = VECTOR('',#1536,1.);
#1536 = DIRECTION('',(0.,-1.,0.));
#1537 = PLANE('',#1538);
#1538 = AXIS2_PLACEMENT_3D('',#1539,#1540,#1541);
#1539 = CARTESIAN_POINT('',(39.5,27.5,75.));
#1540 = DIRECTION('',(0.,0.,1.));
#1541 = DIRECTION('',(0.,-1.,0.));
#1542 = ADVANCED_FACE('',(#1543),#1577,.T.);
#1543 = FACE_BOUND('',#1544,.T.);
#1544 = EDGE_LOOP('',(#1545,#1553,#1554,#1555,#1563,#1571));
#1545 = ORIENTED_EDGE('',*,*,#1546,.F.);
#1546 = EDGE_CURVE('',#1523,#1547,#1549,.T.);
#1547 = VERTEX_POINT('',#1548);
#1548 = CARTESIAN_POINT('',(39.5,27.5,96.));
#1549 = LINE('',#1550,#1551);
#1550 = CARTESIAN_POINT('',(39.5,27.5,0.));
#1551 = VECTOR('',#1552,1.);
#1552 = DIRECTION('',(0.,0.,1.));
#1553 = ORIENTED_EDGE('',*,*,#1532,.T.);
#1554 = ORIENTED_EDGE('',*,*,#869,.T.);
#1555 = ORIENTED_EDGE('',*,*,#1556,.F.);
#1556 = EDGE_CURVE('',#1557,#861,#1559,.T.);
#1557 = VERTEX_POINT('',#1558);
#1558 = CARTESIAN_POINT('',(39.5,-19.5,91.577350454833));
#1559 = LINE('',#1560,#1561);
#1560 = CARTESIAN_POINT('',(39.5,-27.5,91.577350454833));
#1561 = VECTOR('',#1562,1.);
#1562 = DIRECTION('',(0.,-1.,2.2E-16));
#1563 = ORIENTED_EDGE('',*,*,#1564,.F.);
#1564 = EDGE_CURVE('',#1565,#1557,#1567,.T.);
#1565 = VERTEX_POINT('',#1566);
#1566 = CARTESIAN_POINT('',(39.5,-19.5,96.));
#1567 = LINE('',#1568,#1569);
#1568 = CARTESIAN_POINT('',(39.5,-19.5,47.45));
#1569 = VECTOR('',#1570,1.);
#1570 = DIRECTION('',(0.,0.,-1.));
#1571 = ORIENTED_EDGE('',*,*,#1572,.F.);
#1572 = EDGE_CURVE('',#1547,#1565,#1573,.T.);
#1573 = LINE('',#1574,#1575);
#1574 = CARTESIAN_POINT('',(39.5,27.5,96.));
#1575 = VECTOR('',#1576,1.);
#1576 = DIRECTION('',(0.,-1.,2.2E-16));
#1577 = PLANE('',#1578);
#1578 = AXIS2_PLACEMENT_3D('',#1579,#1580,#1581);
#1579 = CARTESIAN_POINT('',(39.5,-27.5,0.));
#1580 = DIRECTION('',(-1.,0.,0.));
#1581 = DIRECTION('',(0.,1.,0.));
#1582 = ADVANCED_FACE('',(#1583),#1602,.T.);
#1583 = FACE_BOUND('',#1584,.T.);
#1584 = EDGE_LOOP('',(#1585,#1586,#1587,#1595));
#1585 = ORIENTED_EDGE('',*,*,#1556,.T.);
#1586 = ORIENTED_EDGE('',*,*,#860,.F.);
#1587 = ORIENTED_EDGE('',*,*,#1588,.F.);
#1588 = EDGE_CURVE('',#1589,#853,#1591,.T.);
#1589 = VERTEX_POINT('',#1590);
#1590 = CARTESIAN_POINT('',(35.077350454833,-19.5,96.));
#1591 = LINE('',#1592,#1593);
#1592 = CARTESIAN_POINT('',(35.077350454833,-27.5,96.));
#1593 = VECTOR('',#1594,1.);
#1594 = DIRECTION('',(0.,-1.,2.2E-16));
#1595 = ORIENTED_EDGE('',*,*,#1596,.T.);
#1596 = EDGE_CURVE('',#1589,#1557,#1597,.T.);
#1597 = CIRCLE('',#1598,3.5);
#1598 = AXIS2_PLACEMENT_3D('',#1599,#1600,#1601);
#1599 = CARTESIAN_POINT('',(38.4,-19.5,94.9));
#1600 = DIRECTION('',(0.,-1.,0.));
#1601 = DIRECTION('',(1.,0.,0.));
#1602 = CYLINDRICAL_SURFACE('',#1603,3.5);
#1603 = AXIS2_PLACEMENT_3D('',#1604,#1605,#1606);
#1604 = CARTESIAN_POINT('',(38.4,-27.5,94.9));
#1605 = DIRECTION('',(0.,-1.,2.2E-16));
#1606 = DIRECTION('',(1.,0.,0.));
#1607 = ADVANCED_FACE('',(#1608,#1649),#1683,.T.);
#1608 = FACE_BOUND('',#1609,.T.);
#1609 = EDGE_LOOP('',(#1610,#1620,#1626,#1627,#1633,#1634,#1635,#1643));
#1610 = ORIENTED_EDGE('',*,*,#1611,.F.);
#1611 = EDGE_CURVE('',#1612,#1614,#1616,.T.);
#1612 = VERTEX_POINT('',#1613);
#1613 = CARTESIAN_POINT('',(-39.5,27.5,96.));
#1614 = VERTEX_POINT('',#1615);
#1615 = CARTESIAN_POINT('',(-39.5,-19.5,96.));
#1616 = LINE('',#1617,#1618);
#1617 = CARTESIAN_POINT('',(-39.5,27.5,96.));
#1618 = VECTOR('',#1619,1.);
#1619 = DIRECTION('',(0.,-1.,2.2E-16));
#1620 = ORIENTED_EDGE('',*,*,#1621,.T.);
#1621 = EDGE_CURVE('',#1612,#1547,#1622,.T.);
#1622 = LINE('',#1623,#1624);
#1623 = CARTESIAN_POINT('',(0.,27.5,96.));
#1624 = VECTOR('',#1625,1.);
#1625 = DIRECTION('',(1.,0.,0.));
#1626 = ORIENTED_EDGE('',*,*,#1572,.T.);
#1627 = ORIENTED_EDGE('',*,*,#1628,.F.);
#1628 = EDGE_CURVE('',#1589,#1565,#1629,.T.);
#1629 = LINE('',#1630,#1631);
#1630 = CARTESIAN_POINT('',(19.2,-19.5,96.));
#1631 = VECTOR('',#1632,1.);
#1632 = DIRECTION('',(1.,0.,0.));
#1633 = ORIENTED_EDGE('',*,*,#1588,.T.);
#1634 = ORIENTED_EDGE('',*,*,#852,.T.);
#1635 = ORIENTED_EDGE('',*,*,#1636,.F.);
#1636 = EDGE_CURVE('',#1637,#844,#1639,.T.);
#1637 = VERTEX_POINT('',#1638);
#1638 = CARTESIAN_POINT('',(-35.07735045483,-19.5,96.));
#1639 = LINE('',#1640,#1641);
#1640 = CARTESIAN_POINT('',(-35.07735045483,-27.5,96.));
#1641 = VECTOR('',#1642,1.);
#1642 = DIRECTION('',(0.,-1.,2.2E-16));
#1643 = ORIENTED_EDGE('',*,*,#1644,.F.);
#1644 = EDGE_CURVE('',#1614,#1637,#1645,.T.);
#1645 = LINE('',#1646,#1647);
#1646 = CARTESIAN_POINT('',(-19.2,-19.5,96.));
#1647 = VECTOR('',#1648,1.);
#1648 = DIRECTION('',(1.,0.,0.));
#1649 = FACE_BOUND('',#1650,.T.);
#1650 = EDGE_LOOP('',(#1651,#1661,#1669,#1677));
#1651 = ORIENTED_EDGE('',*,*,#1652,.T.);
#1652 = EDGE_CURVE('',#1653,#1655,#1657,.T.);
#1653 = VERTEX_POINT('',#1654);
#1654 = CARTESIAN_POINT('',(-26.851767,8.25,96.));
#1655 = VERTEX_POINT('',#1656);
#1656 = CARTESIAN_POINT('',(-26.851767,-8.25,96.));
#1657 = LINE('',#1658,#1659);
#1658 = CARTESIAN_POINT('',(-26.851767,8.25,96.));
#1659 = VECTOR('',#1660,1.);
#1660 = DIRECTION('',(0.,-1.,0.));
#1661 = ORIENTED_EDGE('',*,*,#1662,.T.);
#1662 = EDGE_CURVE('',#1655,#1663,#1665,.T.);
#1663 = VERTEX_POINT('',#1664);
#1664 = CARTESIAN_POINT('',(-18.351767,-8.25,96.));
#1665 = LINE('',#1666,#1667);
#1666 = CARTESIAN_POINT('',(-26.851767,-8.25,96.));
#1667 = VECTOR('',#1668,1.);
#1668 = DIRECTION('',(1.,0.,0.));
#1669 = ORIENTED_EDGE('',*,*,#1670,.T.);
#1670 = EDGE_CURVE('',#1663,#1671,#1673,.T.);
#1671 = VERTEX_POINT('',#1672);
#1672 = CARTESIAN_POINT('',(-18.351767,8.25,96.));
#1673 = LINE('',#1674,#1675);
#1674 = CARTESIAN_POINT('',(-18.351767,-8.25,96.));
#1675 = VECTOR('',#1676,1.);
#1676 = DIRECTION('',(0.,1.,0.));
#1677 = ORIENTED_EDGE('',*,*,#1678,.T.);
#1678 = EDGE_CURVE('',#1671,#1653,#1679,.T.);
#1679 = LINE('',#1680,#1681);
#1680 = CARTESIAN_POINT('',(-18.351767,8.25,96.));
#1681 = VECTOR('',#1682,1.);
#1682 = DIRECTION('',(-1.,0.,0.));
#1683 = PLANE('',#1684);
#1684 = AXIS2_PLACEMENT_3D('',#1685,#1686,#1687);
#1685 = CARTESIAN_POINT('',(0.,2.036E-14,96.));
#1686 = DIRECTION('',(-0.,-2.6E-16,-1.));
#1687 = DIRECTION('',(0.,-1.,2.6E-16));
#1688 = ADVANCED_FACE('',(#1689),#1718,.T.);
#1689 = FACE_BOUND('',#1690,.T.);
#1690 = EDGE_LOOP('',(#1691,#1700,#1701,#1702,#1703,#1711));
#1691 = ORIENTED_EDGE('',*,*,#1692,.T.);
#1692 = EDGE_CURVE('',#1693,#1637,#1695,.T.);
#1693 = VERTEX_POINT('',#1694);
#1694 = CARTESIAN_POINT('',(-34.9,-19.5,94.9));
#1695 = CIRCLE('',#1696,3.5);
#1696 = AXIS2_PLACEMENT_3D('',#1697,#1698,#1699);
#1697 = CARTESIAN_POINT('',(-38.4,-19.5,94.9));
#1698 = DIRECTION('',(0.,-1.,0.));
#1699 = DIRECTION('',(1.,0.,0.));
#1700 = ORIENTED_EDGE('',*,*,#1636,.T.);
#1701 = ORIENTED_EDGE('',*,*,#843,.F.);
#1702 = ORIENTED_EDGE('',*,*,#834,.F.);
#1703 = ORIENTED_EDGE('',*,*,#1704,.F.);
#1704 = EDGE_CURVE('',#1705,#827,#1707,.T.);
#1705 = VERTEX_POINT('',#1706);
#1706 = CARTESIAN_POINT('',(-39.5,-19.5,91.577350454833));
#1707 = LINE('',#1708,#1709);
#1708 = CARTESIAN_POINT('',(-39.5,-27.5,91.577350454833));
#1709 = VECTOR('',#1710,1.);
#1710 = DIRECTION('',(0.,-1.,2.2E-16));
#1711 = ORIENTED_EDGE('',*,*,#1712,.T.);
#1712 = EDGE_CURVE('',#1705,#1693,#1713,.T.);
#1713 = CIRCLE('',#1714,3.5);
#1714 = AXIS2_PLACEMENT_3D('',#1715,#1716,#1717);
#1715 = CARTESIAN_POINT('',(-38.4,-19.5,94.9));
#1716 = DIRECTION('',(0.,-1.,0.));
#1717 = DIRECTION('',(1.,0.,0.));
#1718 = CYLINDRICAL_SURFACE('',#1719,3.5);
#1719 = AXIS2_PLACEMENT_3D('',#1720,#1721,#1722);
#1720 = CARTESIAN_POINT('',(-38.4,-27.5,94.9));
#1721 = DIRECTION('',(0.,-1.,2.2E-16));
#1722 = DIRECTION('',(1.,0.,0.));
#1723 = ADVANCED_FACE('',(#1724),#1749,.T.);
#1724 = FACE_BOUND('',#1725,.T.);
#1725 = EDGE_LOOP('',(#1726,#1727,#1735,#1741,#1742,#1748));
#1726 = ORIENTED_EDGE('',*,*,#826,.F.);
#1727 = ORIENTED_EDGE('',*,*,#1728,.T.);
#1728 = EDGE_CURVE('',#819,#1729,#1731,.T.);
#1729 = VERTEX_POINT('',#1730);
#1730 = CARTESIAN_POINT('',(-39.5,27.5,75.));
#1731 = LINE('',#1732,#1733);
#1732 = CARTESIAN_POINT('',(-39.5,-27.5,75.));
#1733 = VECTOR('',#1734,1.);
#1734 = DIRECTION('',(0.,1.,0.));
#1735 = ORIENTED_EDGE('',*,*,#1736,.T.);
#1736 = EDGE_CURVE('',#1729,#1612,#1737,.T.);
#1737 = LINE('',#1738,#1739);
#1738 = CARTESIAN_POINT('',(-39.5,27.5,0.));
#1739 = VECTOR('',#1740,1.);
#1740 = DIRECTION('',(0.,0.,1.));
#1741 = ORIENTED_EDGE('',*,*,#1611,.T.);
#1742 = ORIENTED_EDGE('',*,*,#1743,.F.);
#1743 = EDGE_CURVE('',#1705,#1614,#1744,.T.);
#1744 = LINE('',#1745,#1746);
#1745 = CARTESIAN_POINT('',(-39.5,-19.5,47.45));
#1746 = VECTOR('',#1747,1.);
#1747 = DIRECTION('',(0.,0.,1.));
#1748 = ORIENTED_EDGE('',*,*,#1704,.T.);
#1749 = PLANE('',#1750);
#1750 = AXIS2_PLACEMENT_3D('',#1751,#1752,#1753);
#1751 = CARTESIAN_POINT('',(-39.5,27.5,0.));
#1752 = DIRECTION('',(1.,0.,0.));
#1753 = DIRECTION('',(0.,-1.,0.));
#1754 = ADVANCED_FACE('',(#1755),#1773,.T.);
#1755 = FACE_BOUND('',#1756,.T.);
#1756 = EDGE_LOOP('',(#1757,#1758,#1766,#1772));
#1757 = ORIENTED_EDGE('',*,*,#818,.T.);
#1758 = ORIENTED_EDGE('',*,*,#1759,.T.);
#1759 = EDGE_CURVE('',#811,#1760,#1762,.T.);
#1760 = VERTEX_POINT('',#1761);
#1761 = CARTESIAN_POINT('',(-31.5,27.5,75.));
#1762 = LINE('',#1763,#1764);
#1763 = CARTESIAN_POINT('',(-31.5,-27.5,75.));
#1764 = VECTOR('',#1765,1.);
#1765 = DIRECTION('',(0.,1.,0.));
#1766 = ORIENTED_EDGE('',*,*,#1767,.F.);
#1767 = EDGE_CURVE('',#1729,#1760,#1768,.T.);
#1768 = LINE('',#1769,#1770);
#1769 = CARTESIAN_POINT('',(-39.5,27.5,75.));
#1770 = VECTOR('',#1771,1.);
#1771 = DIRECTION('',(1.,0.,0.));
#1772 = ORIENTED_EDGE('',*,*,#1728,.F.);
#1773 = PLANE('',#1774);
#1774 = AXIS2_PLACEMENT_3D('',#1775,#1776,#1777);
#1775 = CARTESIAN_POINT('',(-39.5,-27.5,75.));
#1776 = DIRECTION('',(0.,0.,1.));
#1777 = DIRECTION('',(0.,1.,0.));
#1778 = ADVANCED_FACE('',(#1779),#1797,.T.);
#1779 = FACE_BOUND('',#1780,.T.);
#1780 = EDGE_LOOP('',(#1781,#1782,#1790,#1796));
#1781 = ORIENTED_EDGE('',*,*,#810,.T.);
#1782 = ORIENTED_EDGE('',*,*,#1783,.T.);
#1783 = EDGE_CURVE('',#803,#1784,#1786,.T.);
#1784 = VERTEX_POINT('',#1785);
#1785 = CARTESIAN_POINT('',(-31.5,27.5,73.));
#1786 = LINE('',#1787,#1788);
#1787 = CARTESIAN_POINT('',(-31.5,-27.5,73.));
#1788 = VECTOR('',#1789,1.);
#1789 = DIRECTION('',(0.,1.,0.));
#1790 = ORIENTED_EDGE('',*,*,#1791,.F.);
#1791 = EDGE_CURVE('',#1760,#1784,#1792,.T.);
#1792 = LINE('',#1793,#1794);
#1793 = CARTESIAN_POINT('',(-31.5,27.5,75.));
#1794 = VECTOR('',#1795,1.);
#1795 = DIRECTION('',(0.,0.,-1.));
#1796 = ORIENTED_EDGE('',*,*,#1759,.F.);
#1797 = PLANE('',#1798);
#1798 = AXIS2_PLACEMENT_3D('',#1799,#1800,#1801);
#1799 = CARTESIAN_POINT('',(-31.5,0.,74.));
#1800 = DIRECTION('',(1.,0.,0.));
#1801 = DIRECTION('',(0.,0.,1.));
#1802 = ADVANCED_FACE('',(#1803),#1821,.F.);
#1803 = FACE_BOUND('',#1804,.F.);
#1804 = EDGE_LOOP('',(#1805,#1813,#1814,#1815));
#1805 = ORIENTED_EDGE('',*,*,#1806,.F.);
#1806 = EDGE_CURVE('',#795,#1807,#1809,.T.);
#1807 = VERTEX_POINT('',#1808);
#1808 = CARTESIAN_POINT('',(-35.5,27.5,73.));
#1809 = LINE('',#1810,#1811);
#1810 = CARTESIAN_POINT('',(-35.5,-27.5,73.));
#1811 = VECTOR('',#1812,1.);
#1812 = DIRECTION('',(0.,1.,0.));
#1813 = ORIENTED_EDGE('',*,*,#802,.T.);
#1814 = ORIENTED_EDGE('',*,*,#1783,.T.);
#1815 = ORIENTED_EDGE('',*,*,#1816,.F.);
#1816 = EDGE_CURVE('',#1807,#1784,#1817,.T.);
#1817 = LINE('',#1818,#1819);
#1818 = CARTESIAN_POINT('',(-39.5,27.5,73.));
#1819 = VECTOR('',#1820,1.);
#1820 = DIRECTION('',(1.,0.,0.));
#1821 = PLANE('',#1822);
#1822 = AXIS2_PLACEMENT_3D('',#1823,#1824,#1825);
#1823 = CARTESIAN_POINT('',(-39.5,-27.5,73.));
#1824 = DIRECTION('',(0.,0.,1.));
#1825 = DIRECTION('',(0.,1.,0.));
#1826 = ADVANCED_FACE('',(#1827),#1838,.T.);
#1827 = FACE_BOUND('',#1828,.F.);
#1828 = EDGE_LOOP('',(#1829,#1830,#1831,#1832));
#1829 = ORIENTED_EDGE('',*,*,#1433,.T.);
#1830 = ORIENTED_EDGE('',*,*,#794,.T.);
#1831 = ORIENTED_EDGE('',*,*,#1806,.T.);
#1832 = ORIENTED_EDGE('',*,*,#1833,.F.);
#1833 = EDGE_CURVE('',#1426,#1807,#1834,.T.);
#1834 = LINE('',#1835,#1836);
#1835 = CARTESIAN_POINT('',(-35.5,27.5,68.));
#1836 = VECTOR('',#1837,1.);
#1837 = DIRECTION('',(0.,0.,1.));
#1838 = PLANE('',#1839);
#1839 = AXIS2_PLACEMENT_3D('',#1840,#1841,#1842);
#1840 = CARTESIAN_POINT('',(-35.5,9.47E-15,70.5));
#1841 = DIRECTION('',(1.,0.,0.));
#1842 = DIRECTION('',(0.,0.,1.));
#1843 = ADVANCED_FACE('',(#1844),#1863,.F.);
#1844 = FACE_BOUND('',#1845,.F.);
#1845 = EDGE_LOOP('',(#1846,#1854,#1861,#1862));
#1846 = ORIENTED_EDGE('',*,*,#1847,.T.);
#1847 = EDGE_CURVE('',#1010,#1848,#1850,.T.);
#1848 = VERTEX_POINT('',#1849);
#1849 = CARTESIAN_POINT('',(-37.1,-21.5,94.9));
#1850 = LINE('',#1851,#1852);
#1851 = CARTESIAN_POINT('',(-37.1,-27.5,94.9));
#1852 = VECTOR('',#1853,1.);
#1853 = DIRECTION('',(0.,1.,-2.2E-16));
#1854 = ORIENTED_EDGE('',*,*,#1855,.T.);
#1855 = EDGE_CURVE('',#1848,#1848,#1856,.T.);
#1856 = CIRCLE('',#1857,1.3);
#1857 = AXIS2_PLACEMENT_3D('',#1858,#1859,#1860);
#1858 = CARTESIAN_POINT('',(-38.4,-21.5,94.9));
#1859 = DIRECTION('',(0.,-1.,0.));
#1860 = DIRECTION('',(1.,0.,0.));
#1861 = ORIENTED_EDGE('',*,*,#1847,.F.);
#1862 = ORIENTED_EDGE('',*,*,#1009,.F.);
#1863 = CYLINDRICAL_SURFACE('',#1864,1.3);
#1864 = AXIS2_PLACEMENT_3D('',#1865,#1866,#1867);
#1865 = CARTESIAN_POINT('',(-38.4,-27.5,94.9));
#1866 = DIRECTION('',(0.,-1.,2.2E-16));
#1867 = DIRECTION('',(1.,0.,0.));
#1868 = ADVANCED_FACE('',(#1869),#1888,.F.);
#1869 = FACE_BOUND('',#1870,.F.);
#1870 = EDGE_LOOP('',(#1871,#1879,#1886,#1887));
#1871 = ORIENTED_EDGE('',*,*,#1872,.T.);
#1872 = EDGE_CURVE('',#1021,#1873,#1875,.T.);
#1873 = VERTEX_POINT('',#1874);
#1874 = CARTESIAN_POINT('',(-37.1,-21.5,20.));
#1875 = LINE('',#1876,#1877);
#1876 = CARTESIAN_POINT('',(-37.1,-27.5,20.));
#1877 = VECTOR('',#1878,1.);
#1878 = DIRECTION('',(0.,1.,-2.2E-16));
#1879 = ORIENTED_EDGE('',*,*,#1880,.T.);
#1880 = EDGE_CURVE('',#1873,#1873,#1881,.T.);
#1881 = CIRCLE('',#1882,1.3);
#1882 = AXIS2_PLACEMENT_3D('',#1883,#1884,#1885);
#1883 = CARTESIAN_POINT('',(-38.4,-21.5,20.));
#1884 = DIRECTION('',(0.,-1.,0.));
#1885 = DIRECTION('',(1.,0.,0.));
#1886 = ORIENTED_EDGE('',*,*,#1872,.F.);
#1887 = ORIENTED_EDGE('',*,*,#1020,.F.);
#1888 = CYLINDRICAL_SURFACE('',#1889,1.3);
#1889 = AXIS2_PLACEMENT_3D('',#1890,#1891,#1892);
#1890 = CARTESIAN_POINT('',(-38.4,-27.5,20.));
#1891 = DIRECTION('',(0.,-1.,2.2E-16));
#1892 = DIRECTION('',(1.,0.,0.));
#1893 = ADVANCED_FACE('',(#1894),#1913,.F.);
#1894 = FACE_BOUND('',#1895,.F.);
#1895 = EDGE_LOOP('',(#1896,#1904,#1911,#1912));
#1896 = ORIENTED_EDGE('',*,*,#1897,.T.);
#1897 = EDGE_CURVE('',#1032,#1898,#1900,.T.);
#1898 = VERTEX_POINT('',#1899);
#1899 = CARTESIAN_POINT('',(1.3,-21.5,5.));
#1900 = LINE('',#1901,#1902);
#1901 = CARTESIAN_POINT('',(1.3,-27.5,5.));
#1902 = VECTOR('',#1903,1.);
#1903 = DIRECTION('',(0.,1.,-2.2E-16));
#1904 = ORIENTED_EDGE('',*,*,#1905,.T.);
#1905 = EDGE_CURVE('',#1898,#1898,#1906,.T.);
#1906 = CIRCLE('',#1907,1.3);
#1907 = AXIS2_PLACEMENT_3D('',#1908,#1909,#1910);
#1908 = CARTESIAN_POINT('',(0.,-21.5,5.));
#1909 = DIRECTION('',(0.,-1.,0.));
#1910 = DIRECTION('',(1.,0.,0.));
#1911 = ORIENTED_EDGE('',*,*,#1897,.F.);
#1912 = ORIENTED_EDGE('',*,*,#1031,.F.);
#1913 = CYLINDRICAL_SURFACE('',#1914,1.3);
#1914 = AXIS2_PLACEMENT_3D('',#1915,#1916,#1917);
#1915 = CARTESIAN_POINT('',(0.,-27.5,5.));
#1916 = DIRECTION('',(0.,-1.,2.2E-16));
#1917 = DIRECTION('',(1.,0.,0.));
#1918 = ADVANCED_FACE('',(#1919),#1938,.F.);
#1919 = FACE_BOUND('',#1920,.F.);
#1920 = EDGE_LOOP('',(#1921,#1929,#1936,#1937));
#1921 = ORIENTED_EDGE('',*,*,#1922,.T.);
#1922 = EDGE_CURVE('',#1043,#1923,#1925,.T.);
#1923 = VERTEX_POINT('',#1924);
#1924 = CARTESIAN_POINT('',(39.7,-21.5,94.9));
#1925 = LINE('',#1926,#1927);
#1926 = CARTESIAN_POINT('',(39.7,-27.5,94.9));
#1927 = VECTOR('',#1928,1.);
#1928 = DIRECTION('',(0.,1.,-2.2E-16));
#1929 = ORIENTED_EDGE('',*,*,#1930,.T.);
#1930 = EDGE_CURVE('',#1923,#1923,#1931,.T.);
#1931 = CIRCLE('',#1932,1.3);
#1932 = AXIS2_PLACEMENT_3D('',#1933,#1934,#1935);
#1933 = CARTESIAN_POINT('',(38.4,-21.5,94.9));
#1934 = DIRECTION('',(0.,-1.,0.));
#1935 = DIRECTION('',(1.,0.,0.));
#1936 = ORIENTED_EDGE('',*,*,#1922,.F.);
#1937 = ORIENTED_EDGE('',*,*,#1042,.F.);
#1938 = CYLINDRICAL_SURFACE('',#1939,1.3);
#1939 = AXIS2_PLACEMENT_3D('',#1940,#1941,#1942);
#1940 = CARTESIAN_POINT('',(38.4,-27.5,94.9));
#1941 = DIRECTION('',(0.,-1.,2.2E-16));
#1942 = DIRECTION('',(1.,0.,0.));
#1943 = ADVANCED_FACE('',(#1944),#1963,.F.);
#1944 = FACE_BOUND('',#1945,.F.);
#1945 = EDGE_LOOP('',(#1946,#1954,#1961,#1962));
#1946 = ORIENTED_EDGE('',*,*,#1947,.T.);
#1947 = EDGE_CURVE('',#1054,#1948,#1950,.T.);
#1948 = VERTEX_POINT('',#1949);
#1949 = CARTESIAN_POINT('',(39.7,-21.5,20.));
#1950 = LINE('',#1951,#1952);
#1951 = CARTESIAN_POINT('',(39.7,-27.5,20.));
#1952 = VECTOR('',#1953,1.);
#1953 = DIRECTION('',(0.,1.,-2.2E-16));
#1954 = ORIENTED_EDGE('',*,*,#1955,.T.);
#1955 = EDGE_CURVE('',#1948,#1948,#1956,.T.);
#1956 = CIRCLE('',#1957,1.3);
#1957 = AXIS2_PLACEMENT_3D('',#1958,#1959,#1960);
#1958 = CARTESIAN_POINT('',(38.4,-21.5,20.));
#1959 = DIRECTION('',(0.,-1.,0.));
#1960 = DIRECTION('',(1.,0.,0.));
#1961 = ORIENTED_EDGE('',*,*,#1947,.F.);
#1962 = ORIENTED_EDGE('',*,*,#1053,.F.);
#1963 = CYLINDRICAL_SURFACE('',#1964,1.3);
#1964 = AXIS2_PLACEMENT_3D('',#1965,#1966,#1967);
#1965 = CARTESIAN_POINT('',(38.4,-27.5,20.));
#1966 = DIRECTION('',(0.,-1.,2.2E-16));
#1967 = DIRECTION('',(1.,0.,0.));
#1968 = ADVANCED_FACE('',(#1969),#1985,.F.);
#1969 = FACE_BOUND('',#1970,.F.);
#1970 = EDGE_LOOP('',(#1971,#1977,#1978,#1984));
#1971 = ORIENTED_EDGE('',*,*,#1972,.T.);
#1972 = EDGE_CURVE('',#1109,#1655,#1973,.T.);
#1973 = LINE('',#1974,#1975);
#1974 = CARTESIAN_POINT('',(-26.851767,-8.25,98.4));
#1975 = VECTOR('',#1976,1.);
#1976 = DIRECTION('',(-0.,-0.,-1.));
#1977 = ORIENTED_EDGE('',*,*,#1662,.T.);
#1978 = ORIENTED_EDGE('',*,*,#1979,.F.);
#1979 = EDGE_CURVE('',#1111,#1663,#1980,.T.);
#1980 = LINE('',#1981,#1982);
#1981 = CARTESIAN_POINT('',(-18.351767,-8.25,98.4));
#1982 = VECTOR('',#1983,1.);
#1983 = DIRECTION('',(-0.,-0.,-1.));
#1984 = ORIENTED_EDGE('',*,*,#1108,.F.);
#1985 = PLANE('',#1986);
#1986 = AXIS2_PLACEMENT_3D('',#1987,#1988,#1989);
#1987 = CARTESIAN_POINT('',(-26.851767,-8.25,98.4));
#1988 = DIRECTION('',(0.,-1.,0.));
#1989 = DIRECTION('',(1.,0.,0.));
#1990 = ADVANCED_FACE('',(#1991),#2002,.F.);
#1991 = FACE_BOUND('',#1992,.F.);
#1992 = EDGE_LOOP('',(#1993,#1994,#1995,#2001));
#1993 = ORIENTED_EDGE('',*,*,#1979,.T.);
#1994 = ORIENTED_EDGE('',*,*,#1670,.T.);
#1995 = ORIENTED_EDGE('',*,*,#1996,.F.);
#1996 = EDGE_CURVE('',#1127,#1671,#1997,.T.);
#1997 = LINE('',#1998,#1999);
#1998 = CARTESIAN_POINT('',(-18.351767,8.25,98.4));
#1999 = VECTOR('',#2000,1.);
#2000 = DIRECTION('',(-0.,-0.,-1.));
#2001 = ORIENTED_EDGE('',*,*,#1134,.F.);
#2002 = PLANE('',#2003);
#2003 = AXIS2_PLACEMENT_3D('',#2004,#2005,#2006);
#2004 = CARTESIAN_POINT('',(-18.351767,-8.25,98.4));
#2005 = DIRECTION('',(1.,0.,0.));
#2006 = DIRECTION('',(0.,1.,0.));
#2007 = ADVANCED_FACE('',(#2008),#2019,.F.);
#2008 = FACE_BOUND('',#2009,.F.);
#2009 = EDGE_LOOP('',(#2010,#2011,#2012,#2018));
#2010 = ORIENTED_EDGE('',*,*,#1996,.T.);
#2011 = ORIENTED_EDGE('',*,*,#1678,.T.);
#2012 = ORIENTED_EDGE('',*,*,#2013,.F.);
#2013 = EDGE_CURVE('',#1119,#1653,#2014,.T.);
#2014 = LINE('',#2015,#2016);
#2015 = CARTESIAN_POINT('',(-26.851767,8.25,98.4));
#2016 = VECTOR('',#2017,1.);
#2017 = DIRECTION('',(-0.,-0.,-1.));
#2018 = ORIENTED_EDGE('',*,*,#1126,.F.);
#2019 = PLANE('',#2020);
#2020 = AXIS2_PLACEMENT_3D('',#2021,#2022,#2023);
#2021 = CARTESIAN_POINT('',(-18.351767,8.25,98.4));
#2022 = DIRECTION('',(0.,1.,0.));
#2023 = DIRECTION('',(-1.,0.,0.));
#2024 = ADVANCED_FACE('',(#2025),#2031,.F.);
#2025 = FACE_BOUND('',#2026,.F.);
#2026 = EDGE_LOOP('',(#2027,#2028,#2029,#2030));
#2027 = ORIENTED_EDGE('',*,*,#2013,.T.);
#2028 = ORIENTED_EDGE('',*,*,#1652,.T.);
#2029 = ORIENTED_EDGE('',*,*,#1972,.F.);
#2030 = ORIENTED_EDGE('',*,*,#1118,.F.);
#2031 = PLANE('',#2032);
#2032 = AXIS2_PLACEMENT_3D('',#2033,#2034,#2035);
#2033 = CARTESIAN_POINT('',(-26.851767,8.25,98.4));
#2034 = DIRECTION('',(-1.,0.,0.));
#2035 = DIRECTION('',(0.,-1.,0.));
#2036 = ADVANCED_FACE('',(#2037),#2042,.T.);
#2037 = FACE_BOUND('',#2038,.T.);
#2038 = EDGE_LOOP('',(#2039,#2040,#2041));
#2039 = ORIENTED_EDGE('',*,*,#1235,.F.);
#2040 = ORIENTED_EDGE('',*,*,#1248,.F.);
#2041 = ORIENTED_EDGE('',*,*,#1212,.T.);
#2042 = PLANE('',#2043);
#2043 = AXIS2_PLACEMENT_3D('',#2044,#2045,#2046);
#2044 = CARTESIAN_POINT('',(-38.4,-19.5,20.));
#2045 = DIRECTION('',(0.,1.,0.));
#2046 = DIRECTION('',(0.,0.,1.));
#2047 = ADVANCED_FACE('',(#2048),#2054,.T.);
#2048 = FACE_BOUND('',#2049,.T.);
#2049 = EDGE_LOOP('',(#2050,#2051,#2052,#2053));
#2050 = ORIENTED_EDGE('',*,*,#1187,.F.);
#2051 = ORIENTED_EDGE('',*,*,#1273,.T.);
#2052 = ORIENTED_EDGE('',*,*,#1309,.T.);
#2053 = ORIENTED_EDGE('',*,*,#1374,.T.);
#2054 = PLANE('',#2055);
#2055 = AXIS2_PLACEMENT_3D('',#2056,#2057,#2058);
#2056 = CARTESIAN_POINT('',(39.5,27.5,0.));
#2057 = DIRECTION('',(0.,-1.,0.));
#2058 = DIRECTION('',(-1.,0.,0.));
#2059 = ADVANCED_FACE('',(#2060),#2079,.F.);
#2060 = FACE_BOUND('',#2061,.F.);
#2061 = EDGE_LOOP('',(#2062,#2070,#2077,#2078));
#2062 = ORIENTED_EDGE('',*,*,#2063,.T.);
#2063 = EDGE_CURVE('',#1282,#2064,#2066,.T.);
#2064 = VERTEX_POINT('',#2065);
#2065 = CARTESIAN_POINT('',(-30.95,2.E-15,4.));
#2066 = LINE('',#2067,#2068);
#2067 = CARTESIAN_POINT('',(-30.95,2.2E-15,10.));
#2068 = VECTOR('',#2069,1.);
#2069 = DIRECTION('',(-0.,-0.,-1.));
#2070 = ORIENTED_EDGE('',*,*,#2071,.T.);
#2071 = EDGE_CURVE('',#2064,#2064,#2072,.T.);
#2072 = CIRCLE('',#2073,1.3);
#2073 = AXIS2_PLACEMENT_3D('',#2074,#2075,#2076);
#2074 = CARTESIAN_POINT('',(-32.25,2.E-15,4.));
#2075 = DIRECTION('',(0.,0.,1.));
#2076 = DIRECTION('',(1.,0.,0.));
#2077 = ORIENTED_EDGE('',*,*,#2063,.F.);
#2078 = ORIENTED_EDGE('',*,*,#1281,.F.);
#2079 = CYLINDRICAL_SURFACE('',#2080,1.3);
#2080 = AXIS2_PLACEMENT_3D('',#2081,#2082,#2083);
#2081 = CARTESIAN_POINT('',(-32.25,2.2E-15,10.));
#2082 = DIRECTION('',(0.,0.,1.));
#2083 = DIRECTION('',(1.,0.,0.));
#2084 = ADVANCED_FACE('',(#2085),#2104,.F.);
#2085 = FACE_BOUND('',#2086,.F.);
#2086 = EDGE_LOOP('',(#2087,#2095,#2102,#2103));
#2087 = ORIENTED_EDGE('',*,*,#2088,.T.);
#2088 = EDGE_CURVE('',#1293,#2089,#2091,.T.);
#2089 = VERTEX_POINT('',#2090);
#2090 = CARTESIAN_POINT('',(33.55,2.E-15,4.));
#2091 = LINE('',#2092,#2093);
#2092 = CARTESIAN_POINT('',(33.55,2.2E-15,10.));
#2093 = VECTOR('',#2094,1.);
#2094 = DIRECTION('',(-0.,-0.,-1.));
#2095 = ORIENTED_EDGE('',*,*,#2096,.T.);
#2096 = EDGE_CURVE('',#2089,#2089,#2097,.T.);
#2097 = CIRCLE('',#2098,1.3);
#2098 = AXIS2_PLACEMENT_3D('',#2099,#2100,#2101);
#2099 = CARTESIAN_POINT('',(32.25,2.E-15,4.));
#2100 = DIRECTION('',(0.,0.,1.));
#2101 = DIRECTION('',(1.,0.,0.));
#2102 = ORIENTED_EDGE('',*,*,#2088,.F.);
#2103 = ORIENTED_EDGE('',*,*,#1292,.F.);
#2104 = CYLINDRICAL_SURFACE('',#2105,1.3);
#2105 = AXIS2_PLACEMENT_3D('',#2106,#2107,#2108);
#2106 = CARTESIAN_POINT('',(32.25,2.2E-15,10.));
#2107 = DIRECTION('',(0.,0.,1.));
#2108 = DIRECTION('',(1.,0.,0.));
#2109 = ADVANCED_FACE('',(#2110),#2114,.T.);
#2110 = FACE_BOUND('',#2111,.T.);
#2111 = EDGE_LOOP('',(#2112,#2113));
#2112 = ORIENTED_EDGE('',*,*,#1358,.F.);
#2113 = ORIENTED_EDGE('',*,*,#1327,.T.);
#2114 = PLANE('',#2115);
#2115 = AXIS2_PLACEMENT_3D('',#2116,#2117,#2118);
#2116 = CARTESIAN_POINT('',(38.4,-19.5,20.));
#2117 = DIRECTION('',(0.,1.,0.));
#2118 = DIRECTION('',(0.,0.,1.));
#2119 = ADVANCED_FACE('',(#2120),#2134,.T.);
#2120 = FACE_BOUND('',#2121,.T.);
#2121 = EDGE_LOOP('',(#2122,#2123,#2124,#2125,#2126,#2127,#2128,#2129,
    #2130,#2131,#2132,#2133));
#2122 = ORIENTED_EDGE('',*,*,#1833,.F.);
#2123 = ORIENTED_EDGE('',*,*,#1425,.F.);
#2124 = ORIENTED_EDGE('',*,*,#1450,.T.);
#2125 = ORIENTED_EDGE('',*,*,#1475,.T.);
#2126 = ORIENTED_EDGE('',*,*,#1498,.T.);
#2127 = ORIENTED_EDGE('',*,*,#1522,.F.);
#2128 = ORIENTED_EDGE('',*,*,#1546,.T.);
#2129 = ORIENTED_EDGE('',*,*,#1621,.F.);
#2130 = ORIENTED_EDGE('',*,*,#1736,.F.);
#2131 = ORIENTED_EDGE('',*,*,#1767,.T.);
#2132 = ORIENTED_EDGE('',*,*,#1791,.T.);
#2133 = ORIENTED_EDGE('',*,*,#1816,.F.);
#2134 = PLANE('',#2135);
#2135 = AXIS2_PLACEMENT_3D('',#2136,#2137,#2138);
#2136 = CARTESIAN_POINT('',(39.5,27.5,0.));
#2137 = DIRECTION('',(0.,-1.,0.));
#2138 = DIRECTION('',(-1.,0.,0.));
#2139 = ADVANCED_FACE('',(#2140),#2145,.T.);
#2140 = FACE_BOUND('',#2141,.T.);
#2141 = EDGE_LOOP('',(#2142,#2143,#2144));
#2142 = ORIENTED_EDGE('',*,*,#1564,.T.);
#2143 = ORIENTED_EDGE('',*,*,#1596,.F.);
#2144 = ORIENTED_EDGE('',*,*,#1628,.T.);
#2145 = PLANE('',#2146);
#2146 = AXIS2_PLACEMENT_3D('',#2147,#2148,#2149);
#2147 = CARTESIAN_POINT('',(38.4,-19.5,94.9));
#2148 = DIRECTION('',(0.,1.,0.));
#2149 = DIRECTION('',(0.,0.,1.));
#2150 = ADVANCED_FACE('',(#2151),#2157,.T.);
#2151 = FACE_BOUND('',#2152,.T.);
#2152 = EDGE_LOOP('',(#2153,#2154,#2155,#2156));
#2153 = ORIENTED_EDGE('',*,*,#1692,.F.);
#2154 = ORIENTED_EDGE('',*,*,#1712,.F.);
#2155 = ORIENTED_EDGE('',*,*,#1743,.T.);
#2156 = ORIENTED_EDGE('',*,*,#1644,.T.);
#2157 = PLANE('',#2158);
#2158 = AXIS2_PLACEMENT_3D('',#2159,#2160,#2161);
#2159 = CARTESIAN_POINT('',(-38.4,-19.5,94.9));
#2160 = DIRECTION('',(0.,1.,0.));
#2161 = DIRECTION('',(0.,0.,1.));
#2162 = ADVANCED_FACE('',(#2163),#2166,.F.);
#2163 = FACE_BOUND('',#2164,.T.);
#2164 = EDGE_LOOP('',(#2165));
#2165 = ORIENTED_EDGE('',*,*,#1855,.T.);
#2166 = PLANE('',#2167);
#2167 = AXIS2_PLACEMENT_3D('',#2168,#2169,#2170);
#2168 = CARTESIAN_POINT('',(-38.4,-21.5,94.9));
#2169 = DIRECTION('',(0.,1.,0.));
#2170 = DIRECTION('',(0.,0.,1.));
#2171 = ADVANCED_FACE('',(#2172),#2175,.F.);
#2172 = FACE_BOUND('',#2173,.T.);
#2173 = EDGE_LOOP('',(#2174));
#2174 = ORIENTED_EDGE('',*,*,#1880,.T.);
#2175 = PLANE('',#2176);
#2176 = AXIS2_PLACEMENT_3D('',#2177,#2178,#2179);
#2177 = CARTESIAN_POINT('',(-38.4,-21.5,20.));
#2178 = DIRECTION('',(0.,1.,0.));
#2179 = DIRECTION('',(0.,0.,1.));
#2180 = ADVANCED_FACE('',(#2181),#2184,.F.);
#2181 = FACE_BOUND('',#2182,.T.);
#2182 = EDGE_LOOP('',(#2183));
#2183 = ORIENTED_EDGE('',*,*,#1905,.T.);
#2184 = PLANE('',#2185);
#2185 = AXIS2_PLACEMENT_3D('',#2186,#2187,#2188);
#2186 = CARTESIAN_POINT('',(-1.E-16,-21.5,5.));
#2187 = DIRECTION('',(0.,1.,0.));
#2188 = DIRECTION('',(0.,0.,1.));
#2189 = ADVANCED_FACE('',(#2190),#2193,.F.);
#2190 = FACE_BOUND('',#2191,.T.);
#2191 = EDGE_LOOP('',(#2192));
#2192 = ORIENTED_EDGE('',*,*,#1930,.T.);
#2193 = PLANE('',#2194);
#2194 = AXIS2_PLACEMENT_3D('',#2195,#2196,#2197);
#2195 = CARTESIAN_POINT('',(38.4,-21.5,94.9));
#2196 = DIRECTION('',(0.,1.,0.));
#2197 = DIRECTION('',(0.,0.,1.));
#2198 = ADVANCED_FACE('',(#2199),#2202,.F.);
#2199 = FACE_BOUND('',#2200,.T.);
#2200 = EDGE_LOOP('',(#2201));
#2201 = ORIENTED_EDGE('',*,*,#1955,.T.);
#2202 = PLANE('',#2203);
#2203 = AXIS2_PLACEMENT_3D('',#2204,#2205,#2206);
#2204 = CARTESIAN_POINT('',(38.4,-21.5,20.));
#2205 = DIRECTION('',(0.,1.,0.));
#2206 = DIRECTION('',(0.,0.,1.));
#2207 = ADVANCED_FACE('',(#2208),#2211,.T.);
#2208 = FACE_BOUND('',#2209,.T.);
#2209 = EDGE_LOOP('',(#2210));
#2210 = ORIENTED_EDGE('',*,*,#2071,.T.);
#2211 = PLANE('',#2212);
#2212 = AXIS2_PLACEMENT_3D('',#2213,#2214,#2215);
#2213 = CARTESIAN_POINT('',(-5.79E-15,2.13E-15,4.));
#2214 = DIRECTION('',(0.,0.,1.));
#2215 = DIRECTION('',(1.,0.,0.));
#2216 = ADVANCED_FACE('',(#2217),#2220,.T.);
#2217 = FACE_BOUND('',#2218,.T.);
#2218 = EDGE_LOOP('',(#2219));
#2219 = ORIENTED_EDGE('',*,*,#2096,.T.);
#2220 = PLANE('',#2221);
#2221 = AXIS2_PLACEMENT_3D('',#2222,#2223,#2224);
#2222 = CARTESIAN_POINT('',(-5.79E-15,2.13E-15,4.));
#2223 = DIRECTION('',(0.,0.,1.));
#2224 = DIRECTION('',(1.,0.,0.));
#2225 = ( GEOMETRIC_REPRESENTATION_CONTEXT(3) 
GLOBAL_UNCERTAINTY_ASSIGNED_CONTEXT((#2229)) 
GLOBAL_UNIT_ASSIGNED_CONTEXT((#2226,#2227,#2228)) REPRESENTATION_CONTEXT
('Context #1','3D Context with UNIT and UNCERTAINTY') );
#2226 = ( LENGTH_UNIT() NAMED_UNIT(*) SI_UNIT(.MILLI.,.METRE.) );
#2227 = ( NAMED_UNIT(*) PLANE_ANGLE_UNIT() SI_UNIT($,.RADIAN.) );
#2228 = ( NAMED_UNIT(*) SI_UNIT($,.STERADIAN.) SOLID_ANGLE_UNIT() );
#2229 = UNCERTAINTY_MEASURE_WITH_UNIT(LENGTH_MEASURE(5.E-06),#2226,
  'distance_accuracy_value','confusion accuracy');
#2230 = CONTEXT_DEPENDENT_SHAPE_REPRESENTATION(#2231,#2233);
#2231 = ( REPRESENTATION_RELATIONSHIP('','',#593,#10) 
REPRESENTATION_RELATIONSHIP_WITH_TRANSFORMATION(#2232) 
SHAPE_REPRESENTATION_RELATIONSHIP() );
#2232 = ITEM_DEFINED_TRANSFORMATION('','',#11,#19);
#2233 = PRODUCT_DEFINITION_SHAPE('Placement','Placement of an item',
  #2234);
#2234 = NEXT_ASSEMBLY_USAGE_OCCURRENCE('2','MainChargerBody','',#5,#588,
  $);
#2235 = PRODUCT_RELATED_PRODUCT_CATEGORY('part',$,(#590));
#2236 = MECHANICAL_DESIGN_GEOMETRIC_PRESENTATION_REPRESENTATION('',(
    #2237),#575);
#2237 = STYLED_ITEM('color',(#2238),#37);
#2238 = PRESENTATION_STYLE_ASSIGNMENT((#2239,#2245));
#2239 = SURFACE_STYLE_USAGE(.BOTH.,#2240);
#2240 = SURFACE_SIDE_STYLE('',(#2241));
#2241 = SURFACE_STYLE_FILL_AREA(#2242);
#2242 = FILL_AREA_STYLE('',(#2243));
#2243 = FILL_AREA_STYLE_COLOUR('',#2244);
#2244 = COLOUR_RGB('',0.447058818107,0.474509808674,0.501960817233);
#2245 = CURVE_STYLE('',#2246,POSITIVE_LENGTH_MEASURE(0.1),#2247);
#2246 = DRAUGHTING_PRE_DEFINED_CURVE_FONT('continuous');
#2247 = COLOUR_RGB('',9.803921802644E-02,9.803921802644E-02,
  9.803921802644E-02);
#2248 = MECHANICAL_DESIGN_GEOMETRIC_PRESENTATION_REPRESENTATION('',(
    #2249),#2225);
#2249 = STYLED_ITEM('color',(#2250),#594);
#2250 = PRESENTATION_STYLE_ASSIGNMENT((#2251,#2256));
#2251 = SURFACE_STYLE_USAGE(.BOTH.,#2252);
#2252 = SURFACE_SIDE_STYLE('',(#2253));
#2253 = SURFACE_STYLE_FILL_AREA(#2254);
#2254 = FILL_AREA_STYLE('',(#2255));
#2255 = FILL_AREA_STYLE_COLOUR('',#2244);
#2256 = CURVE_STYLE('',#2257,POSITIVE_LENGTH_MEASURE(0.1),#2247);
#2257 = DRAUGHTING_PRE_DEFINED_CURVE_FONT('continuous');
ENDSEC;
END-ISO-10303-21;
